<svg width="232" height="232" viewBox="0 0 232 232" fill="none" xmlns="http://www.w3.org/2000/svg">
<path d="M70.0047 207.042C71.9151 201.564 73.8682 196.371 75.5213 191.088C76.5455 187.815 77.3744 184.433 77.8032 181.036C78.2176 177.759 77.041 174.696 75.2641 171.89C70.7336 164.715 66.4366 157.389 63.4401 149.428C60.5675 141.806 59.5338 134.055 63.8784 126.519C64.7836 124.951 65.9698 123.551 67.2703 121.731C70 126.881 72.3533 131.692 75.0497 136.299C78.3177 141.877 80.9092 148.037 86.5877 151.8C95.1008 157.441 106.463 154.835 112.074 146.303C115.862 140.553 115.39 134.851 112.722 128.977C110.012 123.003 107.315 117.015 104.528 111.074C102.475 106.706 103.509 100.613 106.868 97.3162C111.174 93.0907 115.4 88.7794 119.687 84.5348C126.895 77.3938 134.145 70.3004 141.339 63.1451C144.812 59.6913 149.514 59.4626 152.786 62.7068C156.031 65.9224 155.897 70.9244 152.453 74.4211C148.975 77.9559 145.479 81.4716 142.006 85.0112C141.425 85.6067 140.839 86.2307 140.415 86.9405C140.191 87.3121 140.319 87.8933 140.286 88.3792C140.772 88.4078 141.339 88.6127 141.72 88.4269C142.401 88.0934 143.02 87.5789 143.583 87.0501C147.184 83.6439 150.776 80.2235 154.354 76.7935C158.674 72.649 165.158 73.4922 167.683 78.5419C169.307 81.7908 168.502 85.5447 165.696 88.3554C161.223 92.8382 156.793 97.3591 152.381 101.899C151.776 102.523 151.405 103.371 150.928 104.114C151.129 104.333 151.329 104.553 151.529 104.772C152.558 104.124 153.715 103.609 154.597 102.799C158.246 99.4457 161.828 96.0157 165.401 92.581C167.002 91.0422 168.76 89.9275 171.051 89.8417C174.6 89.7131 177.568 91.5329 178.892 94.6913C180.217 97.845 179.402 101.223 176.882 103.709C172.461 108.068 168.093 112.484 163.729 116.905C163.214 117.424 162.886 118.125 162.447 118.773C163.853 119.811 164.667 118.83 165.387 118.177C167.902 115.886 170.336 113.504 172.804 111.155C173.885 110.126 174.905 109.026 176.048 108.073C179.221 105.434 183.923 105.696 186.791 108.611C189.616 111.484 189.892 116.138 187.258 119.211C185.867 120.835 184.233 122.26 182.646 123.713C182.365 123.97 181.774 124.041 181.36 123.98C173.847 122.865 164.405 127.495 161.733 135.503C161.552 136.042 160.833 136.58 160.251 136.78C154.787 138.643 150.924 142.163 148.713 147.523C148.466 148.128 147.77 148.733 147.146 148.971C142.058 150.895 138.49 154.316 136.394 159.351C136.108 160.042 135.279 160.709 134.55 160.985C130.291 162.614 126.828 165.082 124.77 169.312C119.878 179.378 124.422 192.136 134.603 196.771C135.141 197.019 135.684 197.257 136.408 197.581C135.36 200.682 134.345 203.774 133.226 206.823C133.112 207.133 132.368 207.376 131.916 207.38C123.136 207.414 114.352 207.452 105.572 207.395C94.6625 207.323 83.7485 207.166 72.8392 207.052C72.0056 207.042 71.1719 207.052 70.0095 207.052L70.0047 207.042Z" fill="white"/>
<path d="M77.0029 24.6149C77.8175 24.6149 78.3463 24.6149 78.8798 24.6149C95.8392 24.6149 112.803 24.634 129.763 24.5816C131.368 24.5768 132.125 25.0008 132.402 26.6586C133.321 32.2466 134.493 37.7965 135.332 43.3988C136.003 47.8912 134.736 51.8928 131.473 55.1989C125.261 61.4872 119.115 67.8422 112.875 74.1067C106.772 80.233 100.594 86.2831 94.4434 92.3666C90.8466 95.9252 90.3131 100.117 91.9042 104.729C92.252 105.739 92.7141 106.72 93.1952 107.678C97.3064 115.867 101.437 124.041 105.557 132.226C108.097 137.266 106.32 143.04 101.394 145.788C96.4918 148.523 90.294 146.979 87.431 142.225C85.2777 138.647 83.2054 135.022 81.1855 131.368C74.9973 120.149 68.79 108.945 62.7494 97.6497C61.5441 95.3964 60.6057 92.8287 60.2817 90.3086C59.8339 86.8691 61.7395 83.9488 63.8403 81.3954C69.3045 74.7593 74.8258 68.1614 80.49 61.6921C83.0101 58.8147 83.7485 55.6467 82.991 52.0881C81.1665 43.5179 79.2228 34.9716 77.3316 26.4109C77.2172 25.8964 77.141 25.3724 77.0076 24.6149H77.0029Z" fill="white"/>
<path d="M164.887 165.968C165.754 170.165 167.993 174.171 164.191 177.773C160.48 181.289 156.674 179.435 152.529 177.787C152.829 178.978 153.02 179.817 153.258 180.641C155.349 187.92 151.038 192.803 143.578 191.217C137.971 190.026 133.636 186.891 131.83 181.112C130.892 178.111 131.32 175.2 133.002 172.528C135.227 168.998 138.709 168.612 142.415 168.85C142.93 168.884 143.435 168.988 144.149 169.093C143.592 165.373 143.959 162.014 146.67 159.346C149.371 156.693 152.705 156.55 156.402 157.174C156.088 153.358 156.269 149.752 159.408 147.103C162.49 144.507 165.982 144.312 169.841 145.531C169.693 144.164 169.493 143.001 169.455 141.839C169.217 134.903 176.649 131.273 182.346 133.055C189.406 135.26 192.946 144.145 191.598 150.324C190.716 154.349 185.6 156.621 182.127 155.235C180.526 154.597 178.921 153.963 177.082 153.234C177.539 154.992 178.011 156.564 178.349 158.165C179.378 163.034 177.092 167.192 172.795 167.726C171.065 167.94 169.203 167.197 167.416 166.816C166.635 166.649 165.887 166.306 164.896 165.963L164.887 165.968Z" fill="white"/>
</svg>
