<svg width="1382" height="823" viewBox="0 0 1382 823" fill="none" xmlns="http://www.w3.org/2000/svg">
<path d="M0.750957 0L0.747491 0.00379893V64.2258L0 69.475V707.831V709.865V782.776C0 793.622 11.3303 802.414 25.3089 802.414C39.2858 802.414 50.6178 793.62 50.6178 782.776V751.93C53.0805 743.085 63.209 736.453 75.344 736.453C87.479 736.453 97.6092 743.084 100.07 751.929V803.36C100.07 814.206 111.402 823 125.379 823C139.356 823 150.688 814.206 150.688 803.36V772C153.151 763.155 163.279 756.522 175.414 756.522C187.549 756.522 197.678 763.153 200.14 771.998V782.774C200.14 793.62 211.471 802.412 225.449 802.412C239.426 802.412 250.758 793.618 250.758 782.774V751.929C253.221 743.084 263.349 736.453 275.484 736.453C287.619 736.453 297.748 743.084 300.21 751.929V796.67C300.21 807.517 311.541 816.308 325.519 816.308C339.496 816.308 350.828 807.517 350.828 796.67V768.989C352.994 759.85 363.295 752.921 375.698 752.921C387.833 752.921 397.962 759.551 400.425 768.396V768.398V782.776C400.425 793.622 411.755 802.414 425.733 802.414C439.71 802.414 451.042 793.62 451.042 782.776L451.074 735.109C451.075 732.023 453.399 729.522 456.266 729.522L1382 729.877V0H0.750957Z" fill="#4F4F4F"/>
</svg>
