<svg width="153" height="230" viewBox="0 0 153 230" fill="none" xmlns="http://www.w3.org/2000/svg">
<g clip-path="url(#clip0_238_308)">
<path d="M38.2575 230C59.3673 230 76.4998 212.827 76.4998 191.667V153.333H38.2575C17.1477 153.333 0.0151367 170.507 0.0151367 191.667C0.0151367 212.827 17.1477 230 38.2575 230Z" fill="#0ACF83"/>
<path d="M0.0151367 115C0.0151367 93.8398 17.1477 76.6665 38.2575 76.6665H76.4998V153.333H38.2575C17.1477 153.333 0.0151367 136.16 0.0151367 115Z" fill="#A259FF"/>
<path d="M0.015625 38.3333C0.015625 17.1733 17.1482 0 38.258 0H76.5003V76.6667H38.258C17.1482 76.6667 0.015625 59.4933 0.015625 38.3333Z" fill="#F24E1E"/>
<path d="M76.5 0H114.742C135.852 0 152.985 17.1733 152.985 38.3333C152.985 59.4933 135.852 76.6667 114.742 76.6667H76.5V0Z" fill="#FF7262"/>
<path d="M152.985 115C152.985 136.16 135.852 153.333 114.742 153.333C93.6326 153.333 76.5 136.16 76.5 115C76.5 93.8398 93.6326 76.6665 114.742 76.6665C135.852 76.6665 152.985 93.8398 152.985 115Z" fill="#1ABCFE"/>
</g>
<defs>
<clipPath id="clip0_238_308">
<rect width="153" height="230" fill="white"/>
</clipPath>
</defs>
</svg>
