<svg width="68" height="67" viewBox="0 0 68 67" fill="none" xmlns="http://www.w3.org/2000/svg">
<g clip-path="url(#clip0_125_107)">
<rect width="68" height="67" rx="33.5" fill="white"/>
<path fill-rule="evenodd" clip-rule="evenodd" d="M33.8987 0C15.1536 0 0 15.3542 0 34.3494C0 49.5332 9.70943 62.3861 23.179 66.9351C24.863 67.2771 25.4799 66.196 25.4799 65.2866C25.4799 64.4903 25.4244 61.7607 25.4244 58.9167C15.9946 60.9644 14.0309 54.8221 14.0309 54.8221C12.5155 50.8411 10.2701 49.818 10.2701 49.818C7.18371 47.7138 10.4949 47.7138 10.4949 47.7138C13.9185 47.9413 15.7149 51.2396 15.7149 51.2396C18.7451 56.4712 23.6279 54.993 25.5923 54.083C25.8726 51.865 26.7712 50.3296 27.7253 49.4767C20.2043 48.6804 12.2913 45.7233 12.2913 32.5292C12.2913 28.7758 13.6375 25.705 15.7704 23.3167C15.4339 22.4638 14.255 18.9373 16.1077 14.2173C16.1077 14.2173 18.9699 13.3072 25.4237 17.7431C28.1868 16.9912 31.0363 16.6088 33.8987 16.6055C36.7609 16.6055 39.6787 17.004 42.373 17.7431C48.8275 13.3072 51.6897 14.2173 51.6897 14.2173C53.5424 18.9373 52.3628 22.4638 52.0262 23.3167C54.2154 25.705 55.506 28.7758 55.506 32.5292C55.506 45.7233 47.5931 48.6232 40.0159 49.4767C41.251 50.5571 42.3168 52.6041 42.3168 55.8459C42.3168 60.4521 42.2613 64.149 42.2613 65.2859C42.2613 66.196 42.8789 67.2771 44.5622 66.9358C58.0318 62.3854 67.7412 49.5332 67.7412 34.3494C67.7967 15.3542 52.5876 0 33.8987 0Z" fill="#24292F"/>
</g>
<defs>
<clipPath id="clip0_125_107">
<rect width="68" height="67" rx="33.5" fill="white"/>
</clipPath>
</defs>
</svg>
