<svg width="1026" height="1026" viewBox="0 0 1026 1026" fill="none" xmlns="http://www.w3.org/2000/svg">
<g clip-path="url(#clip0_16_16)">
<path d="M1026 0H0V1026H1026V0Z" fill="white"/>
<path d="M658.034 157.69C602.355 145.845 544.466 140.168 487.865 143.787C437.698 146.994 380.833 155.749 340.463 187.108C321.224 202.052 298.281 228.905 291.988 252.595C291.987 252.598 258.864 377.29 192.616 404.01C126.369 430.73 80.3632 886.757 582.742 842.223C582.742 842.223 877.813 830.554 895.58 494.42C899.871 413.22 897.473 323.954 846.058 256.058C806.658 204.029 751.455 180.895 688.02 164.707C678.111 162.179 668.109 159.833 658.034 157.69Z" fill="#F4F7FA"/>
<path d="M633.599 434.536L636.958 451.743C629.465 454.712 622.314 458.272 615.592 462.418L604.114 449.238C600.982 445.642 595.52 445.306 591.912 448.486L569.322 468.394C565.706 471.581 565.307 477.09 568.434 480.7L580.012 494.062C575.033 500.319 570.585 506.995 566.733 514.022L549.966 508.321C545.444 506.783 540.5 509.251 538.92 513.835L529.026 542.55C527.44 547.15 529.826 552.136 534.357 553.684L551.182 559.433C549.933 567.288 549.376 575.324 549.497 583.461L531.894 587.051C527.168 588.014 524.06 592.673 524.952 597.46L530.545 627.456C531.442 632.263 536.011 635.378 540.75 634.411L558.405 630.811C561.258 638.446 564.709 645.736 568.746 652.595L555.171 664.661C551.51 667.915 551.102 673.554 554.263 677.257L574.063 700.455C577.235 704.172 582.78 704.537 586.445 701.269L600.019 689.168C606.24 694.285 612.896 698.835 619.903 702.784L614.062 720.144C612.48 724.845 614.922 729.948 619.519 731.541L648.296 741.514C652.902 743.111 657.913 740.584 659.485 735.873L665.233 718.646C673.126 719.902 681.201 720.426 689.374 720.25L692.855 738.082C693.808 742.964 698.456 746.134 703.237 745.159L733.133 739.062C737.914 738.087 741.004 733.339 740.038 728.46L736.533 710.78C744.195 707.77 751.494 704.133 758.352 699.895L769.997 713.336C773.23 717.068 778.81 717.435 782.457 714.155L805.242 693.667C808.881 690.394 809.205 684.727 805.967 681.009L794.359 667.68C799.425 661.237 803.913 654.35 807.786 647.113L824.312 652.76C828.931 654.339 833.911 651.827 835.432 647.153L844.929 617.98C846.444 613.323 843.935 608.28 839.326 606.713L822.957 601.147C824.129 593.105 824.568 584.888 824.307 576.585L841.191 573.142C845.93 572.175 848.969 567.508 847.978 562.721L841.792 532.846C840.805 528.079 836.174 524.998 831.449 525.962L814.615 529.394C811.598 521.711 807.98 514.393 803.767 507.533L816.553 496.134C820.148 492.929 820.465 487.392 817.262 483.769L797.268 461.149C794.076 457.539 788.58 457.2 784.989 460.392L772.122 471.829C765.818 466.811 759.098 462.353 752.031 458.52L757.496 442.144C759.016 437.587 756.565 432.659 752.022 431.135L723.644 421.621C719.111 420.102 714.198 422.554 712.668 427.101L707.144 443.515C699.334 442.36 691.353 441.908 683.278 442.155L679.896 425.095C678.965 420.4 674.412 417.371 669.727 418.327L640.423 424.303C635.738 425.258 632.682 429.839 633.599 434.536ZM600.162 597.675C590.939 549.427 622.038 502.669 669.572 492.975C717.106 483.281 763.495 514.237 773.238 562.379C783.04 610.813 752.073 658.236 704.017 668.036C655.96 677.837 609.44 646.216 600.162 597.675Z" fill="#D8DEE8"/>
<path d="M785.847 357.526L786.835 362.586C784.631 363.46 782.528 364.507 780.551 365.726L777.176 361.85C776.254 360.792 774.648 360.693 773.587 361.628L766.944 367.483C765.881 368.421 765.763 370.041 766.683 371.102L770.088 375.032C768.623 376.872 767.315 378.835 766.182 380.902L761.251 379.225C759.922 378.773 758.468 379.499 758.003 380.847L755.093 389.292C754.627 390.644 755.328 392.111 756.661 392.566L761.609 394.257C761.241 396.567 761.078 398.93 761.113 401.323L755.937 402.379C754.547 402.662 753.633 404.032 753.895 405.44L755.54 414.261C755.804 415.675 757.148 416.591 758.541 416.307L763.734 415.248C764.573 417.494 765.588 419.637 766.775 421.654L762.783 425.203C761.706 426.16 761.586 427.818 762.515 428.907L768.338 435.729C769.271 436.822 770.902 436.93 771.98 435.969L775.972 432.41C777.801 433.915 779.759 435.253 781.82 436.414L780.102 441.52C779.636 442.902 780.355 444.403 781.706 444.872L790.169 447.804C791.524 448.274 792.998 447.531 793.46 446.145L795.151 441.079C797.472 441.448 799.847 441.603 802.25 441.55L803.274 446.795C803.554 448.23 804.921 449.163 806.327 448.876L815.119 447.083C816.525 446.796 817.434 445.4 817.15 443.965L816.119 438.765C818.372 437.88 820.519 436.811 822.536 435.564L825.96 439.517C826.911 440.615 828.552 440.723 829.625 439.758L836.325 433.733C837.395 432.77 837.491 431.104 836.538 430.01L833.125 426.091C834.615 424.195 835.934 422.17 837.074 420.042L841.934 421.703C843.292 422.167 844.757 421.429 845.204 420.054L847.997 411.475C848.443 410.105 847.705 408.622 846.349 408.161L841.535 406.524C841.88 404.159 842.009 401.743 841.933 399.301L846.898 398.288C848.292 398.004 849.185 396.631 848.894 395.223L847.074 386.438C846.784 385.035 845.422 384.129 844.032 384.413L839.082 385.423C838.194 383.163 837.131 381.011 835.892 378.993L839.652 375.641C840.709 374.699 840.802 373.07 839.86 372.004L833.98 365.352C833.041 364.291 831.425 364.191 830.369 365.13L826.585 368.493C824.731 367.018 822.755 365.707 820.677 364.579L822.284 359.763C822.731 358.423 822.01 356.974 820.674 356.526L812.328 353.728C810.995 353.281 809.55 354.002 809.1 355.339L807.476 360.166C805.179 359.827 802.832 359.694 800.457 359.767L799.463 354.749C799.189 353.369 797.85 352.478 796.472 352.759L787.854 354.516C786.476 354.797 785.577 356.145 785.847 357.526ZM776.013 405.503C773.301 391.314 782.447 377.563 796.426 374.712C810.405 371.861 824.048 380.965 826.913 395.123C829.796 409.367 820.688 423.313 806.556 426.195C792.423 429.078 778.742 419.778 776.013 405.503Z" fill="#D8DEE8"/>
<path d="M409.863 606.752C419.986 575.903 430.289 528.81 418.228 476.525C404.378 416.488 373.697 404.476 346.15 340.3C306.828 248.692 351.331 182.333 310.623 154.334C290.772 140.68 259.555 140.669 240.309 154.377C185.4 193.487 200.453 363.84 287.573 430.316C326.974 460.382 361.357 456.815 390.924 495.72C417.052 530.098 415.003 575.45 409.863 606.752Z" fill="url(#paint0_linear_16_16)"/>
<mask id="mask0_16_16" style="mask-type:luminance" maskUnits="userSpaceOnUse" x="208" y="144" width="216" height="463">
<path d="M409.863 606.752C419.986 575.903 430.289 528.81 418.228 476.525C404.378 416.488 373.697 404.476 346.15 340.3C306.828 248.692 351.331 182.333 310.623 154.334C290.772 140.68 259.555 140.669 240.309 154.377C185.4 193.487 200.453 363.84 287.573 430.316C326.974 460.382 361.357 456.815 390.924 495.72C417.052 530.098 415.003 575.45 409.863 606.752Z" fill="white"/>
</mask>
<g mask="url(#mask0_16_16)">
<path d="M416.052 529.132C412.751 516.16 408.313 503.411 402.86 491.24C390.33 463.272 376.5 447.888 358.992 428.411C347.565 415.699 334.614 401.291 319.647 380.634C291.643 341.983 282.953 328.405 275.165 306.517C259.757 263.207 262.123 224.375 264.905 205.083C268.852 177.715 278.034 151.671 292.198 127.674L293.049 128.178C278.952 152.062 269.813 177.985 265.885 205.224C263.116 224.426 260.76 263.076 276.098 306.186C283.843 327.957 292.51 341.494 320.448 380.054C335.384 400.668 348.317 415.056 359.728 427.749C377.295 447.291 391.169 462.727 403.763 490.836C409.239 503.058 413.696 515.861 417.011 528.888L416.052 529.132Z" fill="white"/>
<path d="M267.647 275.926L266.931 275.538C266.768 275.449 250.506 266.51 236.057 248.319C222.715 231.523 208.218 203.176 214.92 163.515L215.896 163.68C209.257 202.964 223.603 231.039 236.807 247.673C249.418 263.561 263.414 272.33 266.691 274.259C267.596 242.577 287.908 222.045 304.872 210.37C323.378 197.634 342.001 192.41 342.186 192.359L342.449 193.312C342.265 193.363 323.78 198.552 305.41 211.201C288.499 222.845 268.223 243.385 267.661 275.111L267.647 275.926Z" fill="white"/>
<path d="M272.279 377.82C255.831 377.82 236.505 373.778 218.656 359.887L219.264 359.106C259.32 390.283 306.948 371.274 311.677 369.261C303.587 337.977 310.743 314.9 318.193 301.027C326.306 285.92 336.528 278.154 336.631 278.077L337.224 278.868C337.123 278.944 327.049 286.607 319.042 301.538C311.657 315.308 304.57 338.263 312.742 369.42L312.847 369.822L312.469 369.995C312.174 370.13 294.965 377.82 272.279 377.82Z" fill="white"/>
<path d="M308.969 437.492C296.634 437.492 281.869 435.252 264.69 428.976L265.03 428.047C321.315 448.61 351.36 425.576 354.463 423.003C340.765 390.959 360.056 339.137 360.253 338.615L361.178 338.965C360.982 339.485 341.699 391.297 355.514 422.944L355.656 423.269L355.394 423.508C355.179 423.704 339.561 437.492 308.969 437.492Z" fill="white"/>
</g>
<path d="M427.483 569.546C430.694 550.125 432.54 519.794 416.731 492.669C389.152 445.348 338.884 461.045 290.767 410.347C251.959 369.457 264.189 337.676 221.187 310.502C213.989 305.953 175.957 280.922 147.675 295.999C131.737 304.494 125.963 321.935 124.879 325.21C108.495 374.694 158.899 452.169 224.596 487.604C262.341 507.963 274.519 501.309 340.942 525.053C379.973 539.006 409.279 556.972 427.483 569.546Z" fill="url(#paint1_linear_16_16)"/>
<mask id="mask1_16_16" style="mask-type:luminance" maskUnits="userSpaceOnUse" x="121" y="291" width="309" height="279">
<path d="M427.483 569.546C430.694 550.125 432.54 519.794 416.731 492.669C389.152 445.348 338.884 461.045 290.767 410.347C251.959 369.457 264.189 337.676 221.187 310.502C213.989 305.953 175.957 280.922 147.675 295.999C131.737 304.494 125.963 321.935 124.879 325.21C108.495 374.694 158.899 452.169 224.596 487.604C262.341 507.963 274.519 501.309 340.942 525.053C379.973 539.006 409.279 556.972 427.483 569.546Z" fill="white"/>
</mask>
<g mask="url(#mask1_16_16)">
<path d="M433.021 592.933C423.409 546.762 405.217 515.764 378.951 500.801C366.137 493.501 355.897 492.342 345.057 491.115C333.211 489.774 320.963 488.388 304.76 478.59C288.992 469.055 283.355 459.899 276.217 448.306C269.876 438.008 261.985 425.193 244.28 408.129C228.759 393.169 217.451 386.164 207.473 379.984C196.552 373.219 187.925 367.875 177.91 354.751C161.594 333.37 153.067 305.976 152.566 273.328L153.555 273.312C154.053 305.744 162.511 332.942 178.697 354.151C188.601 367.13 197.159 372.431 207.994 379.143C218.014 385.349 229.37 392.383 244.967 407.416C262.762 424.567 270.689 437.442 277.059 447.788C284.127 459.266 289.709 468.332 305.272 477.743C321.29 487.429 333.428 488.803 345.168 490.132C356.112 491.37 366.45 492.541 379.441 499.941C405.964 515.051 424.318 546.27 433.991 592.732L433.021 592.933Z" fill="white"/>
<path d="M208.049 382.835C174.298 382.835 149.102 369.898 133.702 358.8C116.352 346.297 107.339 333.351 107.25 333.222L108.065 332.661C108.153 332.789 117.09 345.617 134.312 358.021C150.096 369.388 176.265 382.702 211.42 381.802C209.306 375.003 191.693 315.453 214.477 289.887L215.215 290.545C191.53 317.122 212.347 381.476 212.56 382.124L212.767 382.753L212.105 382.773C210.74 382.814 209.387 382.835 208.049 382.835Z" fill="white"/>
<path d="M205.456 437.732C183.869 437.732 156.336 433.289 128.711 416.727L129.219 415.878C163.57 436.473 197.783 438.201 220.436 436.025C242.925 433.865 258.78 427.538 261.423 426.428C252.274 392.672 260.427 345.073 260.51 344.594L261.485 344.764C261.401 345.243 253.221 393.019 262.491 426.581L262.604 426.992L262.216 427.165C262.049 427.239 245.28 434.627 220.567 437.006C215.972 437.449 210.903 437.732 205.456 437.732Z" fill="white"/>
<path d="M234.731 516.112C233.085 516.112 231.424 516.094 229.742 516.058L229.763 515.069C264.305 515.814 290.89 508.631 307.109 502.475C322.591 496.598 331.808 490.528 333.833 489.128C308.491 457.643 318.421 406.25 318.524 405.732L319.494 405.926C319.391 406.442 309.471 457.832 334.933 488.914L335.264 489.317L334.844 489.625C334.474 489.898 298.074 516.112 234.731 516.112Z" fill="white"/>
</g>
<path d="M428.16 553.049C417.359 545.286 399.681 534.051 375.902 525.621C333.608 510.627 314.225 519.473 296.32 501.593C277.787 483.084 289.791 464.854 267.602 444.186C265.736 442.448 241.911 420.829 220.357 428.88C205.279 434.511 199.408 451.64 196.653 459.676C185.961 490.867 192.178 538.394 225.454 561.836C257.002 584.062 296.944 573.469 309.626 570.017C331.873 563.959 337.145 555.288 359.762 549.804C387.267 543.136 411.988 548.076 428.16 553.049Z" fill="url(#paint2_linear_16_16)"/>
<mask id="mask2_16_16" style="mask-type:luminance" maskUnits="userSpaceOnUse" x="191" y="427" width="238" height="149">
<path d="M428.16 553.049C417.359 545.286 399.681 534.051 375.902 525.621C333.608 510.627 314.225 519.473 296.32 501.593C277.787 483.084 289.791 464.854 267.602 444.186C265.736 442.448 241.911 420.829 220.357 428.88C205.279 434.511 199.408 451.64 196.653 459.676C185.961 490.867 192.178 538.394 225.454 561.836C257.002 584.062 296.944 573.469 309.626 570.017C331.873 563.959 337.145 555.288 359.762 549.804C387.267 543.136 411.988 548.076 428.16 553.049Z" fill="white"/>
</mask>
<g mask="url(#mask2_16_16)">
<path d="M436.95 560.179C410.802 541.045 385.298 532.03 361.14 533.382C350.597 533.971 343.175 536.325 335.999 538.602C326.89 541.49 318.29 544.221 303.983 543.621C278.285 542.548 256.341 533.811 242.192 519.018C220.287 496.115 215.421 457.741 229.796 421.257L230.716 421.62C216.483 457.746 221.268 495.709 242.907 518.334C256.878 532.941 278.583 541.571 304.024 542.633C318.149 543.222 326.677 540.521 335.7 537.659C342.935 535.364 350.417 532.991 361.084 532.394C385.476 531.032 411.196 540.108 437.534 559.381L436.95 560.179Z" fill="white"/>
<path d="M232.508 504.422L231.791 504.166C231.371 504.016 189.689 488.779 187.1 456.461L188.086 456.382C190.439 485.752 225.908 500.801 231.412 502.963C228.917 461.298 279.243 438.297 279.754 438.068L280.159 438.971C279.65 439.199 229.33 462.204 232.45 503.663L232.508 504.422Z" fill="white"/>
<path d="M240.379 553.744C225.241 553.744 205.886 550.037 183.788 537.461L184.277 536.601C215.259 554.231 240.771 554.288 256.715 551.233C272.07 548.289 281.716 541.99 283.722 540.586C259.553 506.623 289.015 466.304 289.317 465.898L290.11 466.489C289.812 466.89 260.547 506.954 284.812 540.409L285.096 540.799L284.711 541.092C284.61 541.17 274.38 548.853 256.901 552.205C252.186 553.108 246.644 553.744 240.379 553.744Z" fill="white"/>
</g>
<path d="M927.148 823.197L147.222 816.342V836.625C147.222 842.13 150.624 846.811 155.231 847.645L375.77 887.586C378.388 888.06 381.042 888.186 383.683 887.961L918.672 842.422C923.449 842.016 927.148 837.32 927.148 831.664V823.197Z" fill="url(#paint3_linear_16_16)"/>
<path d="M644.116 790.317L155.287 827.422C146.54 828.086 139.427 821.031 139.427 811.662V436.307C139.427 426.938 146.54 419.343 155.287 419.343H644.116C651.322 419.343 657.149 426.209 657.149 434.678V773.992C657.149 782.462 651.322 789.77 644.116 790.317Z" fill="url(#paint4_linear_16_16)"/>
<path d="M651.91 790.317L163.081 827.422C154.334 828.086 147.222 821.031 147.222 811.662V436.307C147.222 426.938 154.334 419.343 163.081 419.343H651.91C659.117 419.343 664.943 426.209 664.943 434.678V773.992C664.943 782.462 659.117 789.77 651.91 790.317Z" fill="url(#paint5_linear_16_16)"/>
<path d="M636.682 766.395L181.389 798.626C174.27 799.13 168.486 793.339 168.486 785.69V457.066C168.486 449.418 174.27 443.192 181.389 443.16L636.682 441.136C642.626 441.11 647.435 446.736 647.435 453.702V753.02C647.435 759.986 642.626 765.974 636.682 766.395Z" fill="url(#paint6_linear_16_16)"/>
<path d="M424.76 429.61C424.76 433.098 422.244 435.933 419.137 435.943C416.026 435.953 413.502 433.128 413.502 429.632C413.502 426.137 416.026 423.301 419.137 423.299C422.244 423.297 424.76 426.122 424.76 429.61Z" fill="white"/>
<path opacity="0.48" d="M534.135 687.37C496.45 665.591 466.819 693.188 438.223 665.96C420.886 649.452 429.398 637.142 408.065 612.474C384.438 585.152 369.055 594.336 345.31 569.746C315.286 538.653 330.302 514.462 304.44 492.139C273.066 465.057 239.23 490.123 209.364 464.151C196.483 452.949 189.415 436.663 185.724 419.343H156.501C151.38 419.343 147.222 423.801 147.222 429.3V818.389C147.222 823.888 151.38 828.029 156.501 827.639L654.698 789.654C657.143 789.468 659.31 787.935 660.702 785.712C624.232 784.284 601.827 771.152 587.505 757.577C559.488 731.02 564.348 704.831 534.135 687.37Z" fill="white"/>
<path d="M671.393 788.634L147.222 827.691L375.77 869.082C378.387 869.556 381.042 869.682 383.683 869.457L927.148 823.197L679.731 788.899C676.964 788.516 674.174 788.427 671.393 788.634Z" fill="url(#paint7_linear_16_16)"/>
<path opacity="0.3" d="M223.707 828.673L660.095 795.673L795.154 814.244L362.524 849.52L223.707 828.673Z" fill="url(#paint8_linear_16_16)"/>
<g opacity="0.75">
<path d="M261.376 468.965L211.241 469.14V452.915H261.376V468.965Z" fill="white"/>
<path d="M524.063 468.048L293.222 468.854V452.915H524.063V468.048Z" fill="white"/>
<path d="M341.613 495.621L293.222 496.079V480.141L341.613 479.852V495.621Z" fill="white"/>
<path d="M595.463 493.221L372.36 495.331V479.669L595.463 478.338V493.221Z" fill="white"/>
<path d="M341.613 522.558L293.222 523.304V507.366L341.613 506.789V522.558Z" fill="white"/>
<path d="M595.463 518.644L372.36 522.084V506.422L595.463 503.761V518.644Z" fill="white"/>
<path d="M261.376 551.21L211.241 552.283V536.058L261.376 535.161V551.21Z" fill="white"/>
<path d="M524.063 545.594L293.222 550.53V534.591L524.063 530.461V545.594Z" fill="white"/>
<path d="M341.613 576.431L293.222 577.755V561.817L341.613 560.662V576.431Z" fill="white"/>
<path d="M595.463 569.489L372.36 575.59V559.929L595.463 554.606V569.489Z" fill="white"/>
<path d="M341.613 603.368L293.222 604.98V589.042L341.613 587.599V603.368Z" fill="white"/>
<path d="M595.463 594.912L372.36 602.344V586.682L595.463 580.029V594.912Z" fill="white"/>
<path d="M341.613 630.305L293.222 632.205V616.267L341.613 614.535V630.305Z" fill="white"/>
<path d="M595.463 620.335L372.36 629.097V613.435L595.463 605.452V620.335Z" fill="white"/>
<path d="M419.821 653.703L373.1 655.817V640.158L419.821 638.207V653.703Z" fill="white"/>
<path d="M629.532 644.217L449.516 652.36V636.967L629.532 629.452V644.217Z" fill="white"/>
<path d="M261.376 688.286L211.241 690.853V674.629L261.376 672.237V688.286Z" fill="white"/>
<path d="M524.063 674.836L293.222 686.656V670.718L524.063 659.704V674.836Z" fill="white"/>
<path d="M341.613 711.115L293.222 713.881V697.943L341.613 695.345V711.115Z" fill="white"/>
<path d="M595.463 696.603L372.36 709.357V693.695L595.463 681.72V696.603Z" fill="white"/>
<path d="M341.613 738.051L293.222 741.106V725.168L341.613 722.282V738.051Z" fill="white"/>
<path d="M595.463 722.026L372.36 736.11V720.448L595.463 707.143V722.026Z" fill="white"/>
<path d="M261.376 770.532L211.241 773.996V757.771L261.376 754.483V770.532Z" fill="white"/>
<path d="M524.063 752.382L293.222 768.332V752.393L524.063 737.25V752.382Z" fill="white"/>
</g>
<path d="M699.1 233.891L272.372 219.868C258.062 219.398 246.413 230.686 246.413 245.083V660.993C246.413 675.39 258.062 686.564 272.372 685.953L699.1 667.731C711.443 667.204 721.41 656.003 721.41 642.71V258.693C721.41 245.4 711.443 234.297 699.1 233.891Z" fill="url(#paint9_linear_16_16)"/>
<path opacity="0.74" d="M272.372 677.664C262.638 678.066 254.725 670.46 254.725 660.673V245.322C254.725 235.535 262.638 227.851 272.372 228.157L699.1 241.607C707.508 241.872 714.305 249.43 714.305 258.49V642.983C714.305 652.043 707.508 659.668 699.1 660.016L272.372 677.664Z" fill="white"/>
<path d="M699.1 233.891L272.372 219.868C258.062 219.398 246.413 230.687 246.413 245.083V263.783L721.411 275.959V258.693C721.41 245.4 711.443 234.297 699.1 233.891Z" fill="url(#paint10_linear_16_16)"/>
<path d="M292.568 243.899C292.568 248.576 288.803 252.263 284.152 252.134C279.493 252.005 275.712 248.099 275.712 243.409C275.712 238.72 279.493 235.033 284.152 235.175C288.803 235.316 292.568 239.222 292.568 243.899Z" fill="white"/>
<path d="M321.947 244.753C321.947 249.407 318.217 253.077 313.611 252.95C308.997 252.822 305.252 248.935 305.252 244.268C305.252 239.601 308.997 235.931 313.611 236.072C318.217 236.212 321.947 240.098 321.947 244.753Z" fill="white"/>
<path d="M351.046 245.598C351.046 250.231 347.352 253.884 342.789 253.757C338.22 253.631 334.51 249.763 334.51 245.118C334.51 240.473 338.22 236.821 342.789 236.96C347.352 237.098 351.046 240.966 351.046 245.598Z" fill="white"/>
<path d="M502.067 315.822L276.672 311.771V325.024L502.067 328.59V315.822Z" fill="white"/>
<path d="M671.524 318.868V331.272L695.37 331.649V319.297L671.524 318.868Z" fill="white"/>
<path d="M324.323 357.441L276.672 356.934V343.268L324.323 343.881V357.441Z" fill="white"/>
<path d="M578.89 360.151L354.744 357.765V344.272L578.89 347.156V360.151Z" fill="white"/>
<path d="M401.2 381.132L354.744 380.813V367.32L401.2 367.742V381.132Z" fill="white"/>
<path d="M649.538 382.835L430.863 381.335V368.011L649.538 369.996V382.835Z" fill="white"/>
<path d="M401.2 404.004L354.744 403.861V390.368L401.2 390.614V404.004Z" fill="white"/>
<path d="M649.538 404.767L430.863 404.095V390.771L649.538 391.928V404.767Z" fill="white"/>
<path d="M324.323 426.931L276.672 426.965V413.299L324.323 413.371V426.931Z" fill="white"/>
<path d="M578.89 426.75L354.744 426.909V413.417L578.89 413.753V426.75Z" fill="white"/>
<path d="M401.2 449.749L354.744 449.958V436.465L401.2 436.359V449.749Z" fill="white"/>
<path d="M649.538 448.631L430.863 449.615V436.291L649.538 435.791V448.631Z" fill="white"/>
<path d="M401.2 472.621L354.744 473.006V459.513L401.2 459.231V472.621Z" fill="white"/>
<path d="M649.538 470.563L430.863 472.375V459.051L649.538 457.723V470.563Z" fill="white"/>
<path d="M401.2 495.493L354.744 496.054V482.561L401.2 482.103V495.493Z" fill="white"/>
<path d="M649.538 492.494L430.863 495.135V481.811L649.538 479.655V492.494Z" fill="white"/>
<path d="M476.874 517.165L431.578 517.884V504.561L476.874 503.943V517.165Z" fill="white"/>
<path d="M683.472 513.888L505.8 516.706V503.548L683.472 501.124V513.888Z" fill="white"/>
<path d="M324.323 542.748L276.672 543.685V530.019L324.323 529.188V542.748Z" fill="white"/>
<path d="M578.89 537.746L354.744 542.151V528.658L578.89 524.75V537.746Z" fill="white"/>
<path d="M401.2 564.11L354.744 565.199V551.706L401.2 550.72V564.11Z" fill="white"/>
<path d="M649.538 558.29L430.863 563.415V550.091L649.538 545.45V558.29Z" fill="white"/>
<path d="M401.2 586.982L354.744 588.247V574.754L401.2 573.592V586.982Z" fill="white"/>
<path d="M649.538 580.222L430.863 586.175V572.851L649.538 567.382V580.222Z" fill="white"/>
<path d="M324.323 612.239L276.672 613.716V600.05L324.323 598.678V612.239Z" fill="white"/>
<path d="M578.89 604.344L354.744 611.296V597.802L578.89 591.348V604.344Z" fill="white"/>
<path d="M401.2 632.727L354.744 634.344V620.851L401.2 619.337V632.727Z" fill="white"/>
<path d="M649.538 624.085L430.863 631.695V618.37L649.538 611.246V624.085Z" fill="white"/>
<g opacity="0.5">
<path d="M533.228 393.779C483.387 321.255 397.117 344.33 342.543 264.199C332.701 249.747 326.023 235.043 321.442 221.481L272.372 219.868C258.062 219.398 246.413 230.687 246.413 245.083V660.993C246.413 675.39 258.062 686.564 272.372 685.953L683.472 668.398C674.054 654.816 592.029 604.506 570.84 527.263C551.462 456.623 563.299 437.535 533.228 393.779Z" fill="white"/>
</g>
<path d="M510.939 427.137C512.127 425.297 514.293 421.382 514.431 416.124C514.7 405.907 507.123 397.939 506.104 398.396C505.555 398.643 506.251 401.636 506.642 402.963C507.453 405.725 508.326 405.992 508.253 407.26C508.103 409.872 504.333 409.973 502.344 413.438C500.912 415.934 500.797 419.489 502.344 422.302C504.909 426.97 510.695 427.134 510.939 427.137Z" fill="url(#paint11_linear_16_16)"/>
<path d="M672.806 649.046L669.894 639.024L682.053 630.013L689.633 627.179L685.145 641.202L672.806 649.046Z" fill="url(#paint12_linear_16_16)"/>
<path d="M657.754 850.902C657.754 850.902 664.405 867.633 662.655 875.054C669.796 874.914 674.416 874.004 674.416 874.004C674.416 874.004 671.546 866.373 670.986 862.593C670.229 857.485 670.286 849.222 670.286 849.222L657.754 850.902Z" fill="url(#paint13_linear_16_16)"/>
<path d="M584.44 890.035C584.87 890.554 585.634 891.639 585.697 893.109C585.732 893.908 585.55 894.565 585.32 895.169C584.186 898.153 582.405 898.547 580.483 901.713C579.309 903.648 579.531 904.231 578.455 905.104C577.037 906.256 575.321 906.321 573.834 906.338C571.322 906.367 567.704 906.277 563.15 905.735C565.536 902.658 568.075 899.533 570.774 896.378C571.958 894.995 573.14 893.643 574.319 892.324L581.337 889.952C582.371 889.98 583.406 890.008 584.44 890.035Z" fill="#26264F"/>
<path d="M578.604 855.963C578.604 855.963 574.593 876.894 579.697 882.755C584.045 888.616 577.597 884.435 577.597 884.435L569.896 891.155L565.276 899.136C565.276 899.136 569.529 878.65 568.395 870.521C567.261 862.391 566.693 856.908 566.693 856.908L578.604 855.963Z" fill="url(#paint14_linear_16_16)"/>
<path d="M563.479 627.01C563.479 627.01 552.703 636.652 552.703 676.355C552.703 716.058 557.807 802.269 557.807 802.269L565.976 863.993C565.976 863.993 574.445 864.294 580.117 862.593C585.222 839.338 593.54 800.001 589.569 767.104C587.868 731.371 603.749 686.564 603.749 686.564C603.749 686.564 617.361 731.939 627.004 754.627C636.646 777.313 655.003 848.387 656.704 853.492C667.987 854.515 672.806 851.532 672.806 851.532C672.806 851.532 665.572 775.045 658.766 746.118C651.959 717.192 652.527 647.429 641.183 627.577C615.66 617.368 563.479 627.01 563.479 627.01Z" fill="url(#paint15_linear_16_16)"/>
<path d="M563.479 627.01C563.479 627.01 552.702 636.652 552.702 676.355C552.702 716.058 557.807 802.269 557.807 802.269L565.976 863.993C565.976 863.993 574.445 864.294 580.117 862.593C585.222 839.338 593.54 800.001 589.57 767.104C587.868 731.371 603.749 686.564 603.749 686.564C603.749 686.564 617.361 731.939 627.004 754.627C636.646 777.313 655.004 848.387 656.705 853.492C667.987 854.515 672.806 851.532 672.806 851.532C672.806 851.532 665.571 775.045 658.766 746.118C651.959 717.192 652.527 647.429 641.183 627.577C615.66 617.368 563.479 627.01 563.479 627.01Z" fill="url(#paint16_linear_16_16)"/>
<path opacity="0.25" d="M619.461 699.757C622.821 721.599 629.542 733.361 646.344 748.482C659.785 758.563 649.704 780.405 654.745 797.207C656.425 802.247 661.465 807.287 663.146 812.328C669.397 824.833 663.558 840.128 666.393 853.368C670.805 852.759 672.806 851.532 672.806 851.532C672.806 851.532 665.572 775.045 658.766 746.118C651.96 717.192 652.527 647.429 641.184 627.577C615.66 617.368 563.48 627.01 563.48 627.01C563.48 627.01 552.703 636.652 552.703 676.355C552.703 679.576 552.737 683.108 552.799 686.87C563.987 696.771 586.868 698.972 600.98 687.996C601.832 687.357 602.739 686.965 603.676 686.774C603.72 686.649 603.749 686.564 603.749 686.564C603.749 686.564 603.773 686.643 603.809 686.761C610.231 685.589 618.004 693.929 619.461 699.757Z" fill="url(#paint17_linear_16_16)"/>
<path d="M660.905 881.403C660.905 881.403 659.248 881.403 659.386 883.544C659.524 885.685 658.64 893.05 667.066 893.395C675.492 893.741 676.791 892.799 677.067 892.799C677.344 892.799 674.857 885.754 674.857 885.754L672.163 882.301L664.912 881.541L660.905 881.403Z" fill="#26264F"/>
<path d="M679.589 888.796C679.409 887.018 678.414 884.218 677.412 881.965C675.925 878.618 677.146 877.366 675.724 874.317C675.233 873.263 674.755 872.264 673.716 871.273C673.477 871.046 671.152 868.897 667.766 869.006C667.1 869.028 666.074 869.073 664.965 869.663C663.659 870.36 663.004 871.406 662.445 872.324C661.567 873.767 661.768 874.209 660.415 878.344C660.306 878.676 660.068 879.398 659.885 880.393C659.744 881.155 659.688 881.795 659.663 882.232C661.873 882.232 670.368 882.577 672.163 883.89C673.959 885.202 674.857 887.412 674.857 889.622C674.857 891.832 675.962 892.868 677.067 892.799C678.054 892.737 680.016 890.909 679.589 888.796Z" fill="#444B8C"/>
<path d="M577.527 879.814C579.425 879.844 580.817 881.354 581.868 884.995C582.918 888.635 587.958 891.856 582.078 891.085C576.197 890.315 571.926 898.646 569.827 901.727C567.726 904.807 562.089 907.543 562.229 904.533C562.368 901.523 564.856 900.116 565.556 897.036C566.256 893.955 573.198 879.747 577.527 879.814Z" fill="#444B8C"/>
<path d="M677.269 631.802C678.664 627.922 687.373 602.437 673.297 579.195C661.774 560.168 641.834 553.961 638.991 553.121C621.683 548.01 613.009 554.576 607.548 548.533C598.282 538.278 608.779 503.346 629.083 496.349C651.97 488.463 679.426 518.79 690.552 538.709C705.149 564.843 701.556 590.816 700.711 596.165C698.517 610.066 693.414 620.669 689.632 627.179C685.511 628.72 681.39 630.261 677.269 631.802Z" fill="white"/>
<path d="M617.501 491.418C597.071 490.601 581.316 490.925 572.416 499.818C563.016 509.212 572.516 519.818 570.475 544.39C567.35 582.01 543.377 591.202 541.573 629.368C540.965 642.228 543.141 652.739 544.831 659.069C550.093 665.621 558.704 674.868 571.413 682.599C589.906 693.851 600.63 691.889 627.189 699.158C670.632 711.047 674.497 725.206 696.039 721.599C717.81 717.953 736.91 699.632 734.603 689.571C733.221 683.546 724.445 685.253 714.34 676.063C701.317 664.219 706.34 652.913 696.439 640.186C682.217 621.904 662.403 633.08 650.284 617.236C638.025 601.208 642.887 569.626 653.221 552.41C659.971 541.166 662.861 527.989 668.605 516.199C669.082 515.22 669.636 513.613 669.392 511.605C668.46 503.927 655.661 499.762 645.966 496.707C631.182 492.047 619.181 491.484 617.501 491.418Z" fill="white"/>
<path d="M600.293 490.573L604.322 489.333C604.322 489.333 605.376 494.788 618.331 495.47C625.522 495.47 630.171 491.441 630.171 491.441L632.924 493.448C632.924 493.448 626.884 500.993 617.277 500.801C604.88 500.553 600.293 490.573 600.293 490.573Z" fill="url(#paint18_linear_16_16)"/>
<path d="M608.498 473.979C609.274 467.988 614.01 464.149 615.044 463.327C619.371 459.888 620.252 459.542 621.738 459.259L623.768 458.952C623.768 458.952 623.877 458.955 623.989 458.961C625.177 459.033 628.739 460.423 629.386 460.878C631.454 462.333 629.931 472.633 623.661 485.444C623.414 486.529 623.168 487.614 622.921 488.698C628.386 489.659 629.74 490.645 629.783 491.432C629.876 493.137 623.893 495.313 618.347 495.454C611.393 495.632 604.009 492.64 604.15 490.407C604.207 489.503 605.519 488.388 610.568 487.293C611.358 486.183 612.146 485.074 612.936 483.964C612.219 483.097 607.926 478.393 608.498 473.979Z" fill="url(#paint19_linear_16_16)"/>
<path d="M617.094 471.723C618.671 470.779 619.873 472.809 619.13 474.582C618.387 476.356 615.891 477.465 614.376 476.408C612.862 475.35 614.972 472.993 617.094 471.723Z" fill="url(#paint20_linear_16_16)"/>
<path d="M821.537 471.693C800.774 449.163 752.466 455.342 725.67 473.436C713.22 481.844 706.829 491.776 692.117 492.61C680.933 493.244 663.141 489.038 653.771 476.922C652.59 475.396 647.869 468.995 640.779 460.922C637.653 457.363 634.545 454.023 629.726 453.268C628.502 453.076 624.43 452.413 621.738 455.043C619.557 457.174 619.022 460.879 619.667 463.55C620.053 465.146 620.552 465.315 620.481 466.36C620.281 469.297 614.931 470.577 615.229 472.056C615.441 473.113 618.226 472.726 618.705 474.053C619.231 475.507 616.173 476.758 614.859 480.414C612.398 482.062 610.843 486.162 610.304 491.649C609.513 499.715 610.324 506.268 611.852 511.204C619.21 534.968 624.474 551.967 637.212 561.459C654.077 574.026 669.262 562.423 712.162 560.588C770.905 558.075 785.551 577.986 806.664 564.365C833.025 547.356 843.094 495.085 821.537 471.693Z" fill="url(#paint21_linear_16_16)"/>
<path d="M513.421 425.706C512.898 430.621 511.126 452.364 526.123 470.723C540.137 487.877 559.984 491.303 563.672 491.861C581.516 494.557 589.212 486.867 595.447 492.107C606.029 500.999 600.406 537.037 581.25 546.745C559.656 557.687 528.311 531.399 514.566 513.187C496.533 489.295 496.54 463.074 496.646 457.66C496.919 443.589 500.524 432.388 503.38 425.422C504.552 425.069 506.338 424.679 508.527 424.755C510.614 424.827 512.297 425.297 513.421 425.706Z" fill="white"/>
<path opacity="0.25" d="M696.692 707.219C691.469 701.864 697.219 691.064 689.503 683.035C682.341 675.583 674.233 681.603 662.704 675.191C647.916 666.967 651.991 651.911 637.865 643.817C627.708 637.996 622.935 644.254 607.145 641.202C591.381 638.156 572.182 627.288 562.698 607.867C558.668 599.615 557.182 591.411 556.985 584.078C549.896 596.745 542.542 608.883 541.573 629.368C540.965 642.228 543.141 652.739 544.831 659.069C550.093 665.621 558.704 674.868 571.413 682.599C589.906 693.851 600.63 691.889 627.189 699.158C670.632 711.048 674.497 725.207 696.039 721.599C709.953 719.269 722.746 710.946 729.587 702.614C709.51 711.552 700.484 711.106 696.692 707.219Z" fill="url(#paint22_linear_16_16)"/>
<path d="M872.845 268.073C872.845 189.002 799.909 127.274 713.036 130.099C663.564 131.708 620.521 154.01 593.644 186.933C593.641 186.923 593.638 186.915 593.634 186.905C593.468 187.109 593.312 187.322 593.146 187.527C592.682 188.103 592.233 188.69 591.778 189.272C590.948 190.335 590.13 191.404 589.333 192.487C588.862 193.127 588.398 193.772 587.939 194.419C587.172 195.5 586.425 196.593 585.69 197.693C585.27 198.324 584.846 198.951 584.437 199.587C583.619 200.859 582.832 202.148 582.058 203.444C581.778 203.913 581.484 204.374 581.21 204.847C580.19 206.605 579.211 208.384 578.275 210.184C578.026 210.662 577.799 211.149 577.556 211.63C576.874 212.98 576.208 214.338 575.574 215.711C575.262 216.384 574.968 217.064 574.668 217.743C574.132 218.958 573.612 220.18 573.113 221.411C572.824 222.126 572.539 222.843 572.262 223.563C571.777 224.827 571.317 226.101 570.872 227.38C570.639 228.05 570.398 228.715 570.176 229.389C569.646 231 569.153 232.624 568.687 234.258C568.59 234.6 568.477 234.935 568.383 235.277C567.839 237.249 567.347 239.239 566.899 241.242C566.767 241.832 566.658 242.429 566.535 243.022C566.235 244.459 565.951 245.9 565.701 247.352C565.574 248.092 565.462 248.835 565.348 249.578C565.141 250.922 564.956 252.271 564.793 253.626C564.702 254.387 564.612 255.147 564.535 255.911C564.389 257.34 564.278 258.778 564.181 260.22C564.137 260.891 564.08 261.558 564.045 262.231C563.938 264.338 563.872 266.453 563.872 268.584C563.872 319.325 594.603 364.083 640.674 388.047C644.911 390.251 649.28 392.281 653.769 394.125C656.017 395.049 658.295 395.925 660.603 396.754C676.82 402.58 694.472 406.034 713.036 406.576C713.037 406.576 713.037 406.576 713.037 406.576C715.595 406.651 718.139 406.662 720.672 406.626C721.527 406.614 722.372 406.566 723.224 406.541C724.899 406.493 726.575 406.443 728.237 406.347C729.254 406.288 730.26 406.196 731.272 406.119C732.757 406.007 734.242 405.894 735.716 405.744C736.796 405.634 737.867 405.497 738.94 405.368C740.334 405.199 741.726 405.026 743.109 404.824C744.213 404.663 745.309 404.481 746.406 404.299C747.744 404.077 749.078 403.846 750.405 403.592C751.515 403.381 752.62 403.155 753.721 402.922C755.02 402.647 756.311 402.358 757.598 402.054C758.701 401.793 759.801 401.525 760.894 401.243C762.166 400.915 763.427 400.568 764.686 400.211C765.769 399.904 766.852 399.598 767.924 399.271C768.32 399.15 768.726 399.047 769.12 398.923C769.111 398.913 769.103 398.904 769.094 398.894C829.197 380.069 872.845 329.033 872.845 268.073Z" fill="url(#paint23_linear_16_16)"/>
<path d="M860.908 268.093C860.908 346.96 788.343 408.775 701.906 406.25C618.689 403.819 553.469 342.228 553.469 268.601C553.469 194.974 618.689 133.167 701.906 130.461C788.343 127.65 860.908 189.225 860.908 268.093Z" fill="url(#paint24_linear_16_16)"/>
<path d="M662.908 306.292L601.2 274.888V264.774L662.908 229.042V246.256L620.217 269.059L662.908 289.149V306.292Z" fill="white"/>
<path d="M728.551 215.102L693.455 321.164L675.827 320.984L710.644 215.344L728.551 215.102Z" fill="white"/>
<path d="M741.596 289.388L786.695 268.805L741.596 245.733V228.212L807.365 264.256V274.848L741.596 306.835V289.388Z" fill="white"/>
<g opacity="0.3">
<path d="M739.497 371.929C720.741 330.635 739.704 292.477 714.378 265.991C688.94 239.388 656.312 264.256 621.726 242.968C608.5 234.826 593.887 219.249 583.089 187.12C564.461 209.988 553.469 238.188 553.469 268.601C553.469 342.228 618.689 403.819 701.906 406.251C721.416 406.821 740.24 404.1 757.709 398.613C749.078 389.618 743.382 380.482 739.497 371.929Z" fill="url(#paint25_linear_16_16)"/>
</g>
</g>
<defs>
<linearGradient id="paint0_linear_16_16" x1="240.947" y1="147.876" x2="372.233" y2="565.604" gradientUnits="userSpaceOnUse">
<stop stop-color="#FF9085"/>
<stop offset="1" stop-color="#FB6FBB"/>
</linearGradient>
<linearGradient id="paint1_linear_16_16" x1="481.344" y1="1350.27" x2="452.44" y2="1222.76" gradientUnits="userSpaceOnUse">
<stop stop-color="#FF9085"/>
<stop offset="1" stop-color="#FB6FBB"/>
</linearGradient>
<linearGradient id="paint2_linear_16_16" x1="355.971" y1="463.929" x2="168.439" y2="617.974" gradientUnits="userSpaceOnUse">
<stop stop-color="#FF9085"/>
<stop offset="1" stop-color="#FB6FBB"/>
</linearGradient>
<linearGradient id="paint3_linear_16_16" x1="476.644" y1="853.237" x2="421.851" y2="876.25" gradientUnits="userSpaceOnUse">
<stop stop-color="#40447E"/>
<stop offset="0.9964" stop-color="#3C3B6B"/>
</linearGradient>
<linearGradient id="paint4_linear_16_16" x1="387.492" y1="609.65" x2="330.681" y2="633.511" gradientUnits="userSpaceOnUse">
<stop stop-color="#40447E"/>
<stop offset="0.9964" stop-color="#3C3B6B"/>
</linearGradient>
<linearGradient id="paint5_linear_16_16" x1="147.222" y1="623.404" x2="664.943" y2="623.404" gradientUnits="userSpaceOnUse">
<stop stop-color="#40447E"/>
<stop offset="0.9964" stop-color="#3C3B6B"/>
</linearGradient>
<linearGradient id="paint6_linear_16_16" x1="180.477" y1="790.309" x2="706.025" y2="362.348" gradientUnits="userSpaceOnUse">
<stop stop-color="#AA80F9"/>
<stop offset="0.9964" stop-color="#6165D7"/>
</linearGradient>
<linearGradient id="paint7_linear_16_16" x1="147.222" y1="829.046" x2="927.148" y2="829.046" gradientUnits="userSpaceOnUse">
<stop stop-color="#40447E"/>
<stop offset="0.9964" stop-color="#3C3B6B"/>
</linearGradient>
<linearGradient id="paint8_linear_16_16" x1="223.707" y1="822.596" x2="795.154" y2="822.596" gradientUnits="userSpaceOnUse">
<stop stop-color="#40447E"/>
<stop offset="0.9964" stop-color="#3C3B6B"/>
</linearGradient>
<linearGradient id="paint9_linear_16_16" x1="643.167" y1="125.447" x2="180.698" y2="1050.38" gradientUnits="userSpaceOnUse">
<stop offset="0.0036" stop-color="#E38DDD"/>
<stop offset="1" stop-color="#9571F6"/>
</linearGradient>
<linearGradient id="paint10_linear_16_16" x1="443.148" y1="96.561" x2="523.504" y2="417.985" gradientUnits="userSpaceOnUse">
<stop offset="0.0036" stop-color="#E38DDD"/>
<stop offset="1" stop-color="#9571F6"/>
</linearGradient>
<linearGradient id="paint11_linear_16_16" x1="511.552" y1="407.835" x2="499.859" y2="426.75" gradientUnits="userSpaceOnUse">
<stop stop-color="#FFC444"/>
<stop offset="0.9964" stop-color="#F36F56"/>
</linearGradient>
<linearGradient id="paint12_linear_16_16" x1="678.107" y1="631.712" x2="682.828" y2="641.421" gradientUnits="userSpaceOnUse">
<stop stop-color="#FFC444"/>
<stop offset="0.9964" stop-color="#F36F56"/>
</linearGradient>
<linearGradient id="paint13_linear_16_16" x1="666.085" y1="878.974" x2="666.085" y2="848.513" gradientUnits="userSpaceOnUse">
<stop stop-color="#FFC444"/>
<stop offset="0.9964" stop-color="#F36F56"/>
</linearGradient>
<linearGradient id="paint14_linear_16_16" x1="573.24" y1="887.655" x2="573.24" y2="850.945" gradientUnits="userSpaceOnUse">
<stop stop-color="#FFC444"/>
<stop offset="0.9964" stop-color="#F36F56"/>
</linearGradient>
<linearGradient id="paint15_linear_16_16" x1="552.703" y1="743.451" x2="672.806" y2="743.451" gradientUnits="userSpaceOnUse">
<stop stop-color="#311944"/>
<stop offset="1" stop-color="#893976"/>
</linearGradient>
<linearGradient id="paint16_linear_16_16" x1="548.885" y1="653.92" x2="635.414" y2="799.254" gradientUnits="userSpaceOnUse">
<stop stop-color="#311944"/>
<stop offset="1" stop-color="#893976"/>
</linearGradient>
<linearGradient id="paint17_linear_16_16" x1="582.949" y1="633.639" x2="669.477" y2="778.973" gradientUnits="userSpaceOnUse">
<stop stop-color="#311944"/>
<stop offset="1" stop-color="#893976"/>
</linearGradient>
<linearGradient id="paint18_linear_16_16" x1="605.194" y1="473.932" x2="622.931" y2="502.122" gradientUnits="userSpaceOnUse">
<stop offset="0.0036" stop-color="#E38DDD"/>
<stop offset="1" stop-color="#9571F6"/>
</linearGradient>
<linearGradient id="paint19_linear_16_16" x1="626.607" y1="469.607" x2="607.115" y2="501.138" gradientUnits="userSpaceOnUse">
<stop stop-color="#FFC444"/>
<stop offset="0.9964" stop-color="#F36F56"/>
</linearGradient>
<linearGradient id="paint20_linear_16_16" x1="619.623" y1="465.337" x2="608.498" y2="499.441" gradientUnits="userSpaceOnUse">
<stop stop-color="#FFC444"/>
<stop offset="0.9964" stop-color="#F36F56"/>
</linearGradient>
<linearGradient id="paint21_linear_16_16" x1="613.913" y1="334.929" x2="777.272" y2="594.576" gradientUnits="userSpaceOnUse">
<stop stop-color="#444B8C"/>
<stop offset="0.9964" stop-color="#26264F"/>
</linearGradient>
<linearGradient id="paint22_linear_16_16" x1="551.371" y1="504.329" x2="644.18" y2="695.176" gradientUnits="userSpaceOnUse">
<stop stop-color="#FF9085"/>
<stop offset="1" stop-color="#FB6FBB"/>
</linearGradient>
<linearGradient id="paint23_linear_16_16" x1="513.31" y1="-143.295" x2="741.326" y2="314.277" gradientUnits="userSpaceOnUse">
<stop stop-color="#FFC444"/>
<stop offset="0.9964" stop-color="#F36F56"/>
</linearGradient>
<linearGradient id="paint24_linear_16_16" x1="647.399" y1="157.253" x2="868.873" y2="568.02" gradientUnits="userSpaceOnUse">
<stop stop-color="#FFC444"/>
<stop offset="0.9964" stop-color="#F36F56"/>
</linearGradient>
<linearGradient id="paint25_linear_16_16" x1="586.578" y1="184.551" x2="801.733" y2="616.315" gradientUnits="userSpaceOnUse">
<stop stop-color="#FFC444"/>
<stop offset="0.9964" stop-color="#F36F56"/>
</linearGradient>
<clipPath id="clip0_16_16">
<rect width="1026" height="1026" fill="white"/>
</clipPath>
</defs>
</svg>
