<svg width="38" height="50" viewBox="0 0 38 50" fill="none" xmlns="http://www.w3.org/2000/svg">
<path d="M12.442 38.6641C12.442 38.6641 10.5295 39.7781 13.7998 40.1516C17.7623 40.6078 19.7889 40.5437 24.1514 39.7125C24.1514 39.7125 25.2967 40.4375 26.9014 41.0641C17.1123 45.2562 4.74981 40.8125 12.4404 38.6641H12.442ZM11.2436 33.1953C11.2436 33.1953 9.09512 34.7812 12.367 35.1141C16.6092 35.5531 19.9436 35.5953 25.7295 34.4812C25.7295 34.4812 26.5279 35.2875 27.7904 35.7328C15.9576 39.1906 2.77169 36.0016 11.2436 33.1953ZM21.3264 23.9109C23.7342 26.6859 20.6904 29.1844 20.6904 29.1844C20.6904 29.1844 26.8108 26.0172 24.0029 22.0641C21.3764 18.3687 19.3576 16.5391 30.2608 10.2141C30.2608 10.2141 13.1467 14.4875 21.3248 23.9125L21.3264 23.9109ZM34.267 42.7172C34.267 42.7172 35.6842 43.8797 32.7123 44.7844C27.0639 46.4922 9.20137 47.0047 4.23731 44.8484C2.45606 44.075 5.79981 42.9937 6.84981 42.7734C7.94825 42.5297 8.57481 42.5797 8.57481 42.5797C6.58887 41.1797 -4.25019 45.3219 3.067 46.5094C23.0295 49.7484 39.4498 45.0531 34.267 42.7172ZM13.3607 27.5234C13.3607 27.5234 4.27169 29.6797 10.1373 30.4609C12.6201 30.7937 17.5608 30.7219 22.167 30.3312C25.9248 30.0125 29.7029 29.3375 29.7029 29.3375C29.7029 29.3375 28.3764 29.9062 27.4154 30.5672C18.1858 32.9922 0.357623 31.8609 5.492 29.3797C9.8295 27.2875 13.3607 27.5234 13.3607 27.5234ZM29.6608 36.6375C39.0358 31.7547 34.6983 27.075 31.6795 27.7109C30.9373 27.8562 30.6045 27.9969 30.6045 27.9969C30.6045 27.9969 30.8733 27.5641 31.4029 27.3781C37.392 25.2703 41.9983 33.5859 29.4733 36.8828C29.4733 36.875 29.6217 36.7516 29.6608 36.6375ZM24.0045 0C24.0045 0 29.1983 5.19219 19.0733 13.1828C10.9608 19.5953 17.2248 23.25 19.0733 27.425C14.3373 23.1516 10.8623 19.3937 13.1904 15.8937C16.6154 10.7422 26.0967 8.25156 24.0045 0ZM14.2795 49.8453C23.2811 50.4141 37.1061 49.5203 37.442 45.2641C37.442 45.2641 36.8061 46.875 29.9936 48.1594C22.3123 49.6078 12.8311 49.4359 7.20762 48.5094C7.20762 48.5094 8.36387 49.4609 14.2779 49.8453H14.2795Z" fill="white"/>
</svg>
