<svg width="32" height="36" viewBox="0 0 32 36" fill="none" xmlns="http://www.w3.org/2000/svg">
<path d="M20.3365 23.0451C19.0207 23.1733 17.6951 22.9319 16.5089 22.3481C16.2401 22.1331 16.0184 21.8653 15.8572 21.5613C15.696 21.2572 15.5989 20.9234 15.5718 20.5803C15.5712 20.529 15.5605 20.4782 15.5402 20.4311C15.5199 20.3839 15.4905 20.3412 15.4536 20.3055C15.4167 20.2698 15.3731 20.2418 15.3254 20.223C15.2776 20.2043 15.2265 20.1952 15.1752 20.1963C14.6212 20.1896 14.0672 20.1911 13.5133 20.1956C13.4165 20.1857 13.3197 20.2144 13.2439 20.2754C13.1681 20.3364 13.1194 20.4249 13.1084 20.5215C13.0768 21.1234 13.1785 21.7249 13.4064 22.2829C13.6342 22.8409 13.9824 23.3417 14.4262 23.7495C15.5466 24.6237 16.9069 25.1355 18.3257 25.2163C19.804 25.3878 21.3001 25.3243 22.7586 25.0281C23.8785 24.8192 24.9052 24.2659 25.6955 23.4454C26.1324 22.9067 26.4252 22.2659 26.5464 21.583C26.6676 20.9001 26.6133 20.1977 26.3885 19.5415C26.1997 19.079 25.9075 18.6659 25.5342 18.3339C25.161 18.0019 24.7166 17.7597 24.2353 17.6261C21.9939 16.8396 19.5728 16.8991 17.2878 16.3015C16.8911 16.1767 16.4064 16.0411 16.2296 15.6211C16.1274 15.3256 16.1204 15.0055 16.2097 14.7058C16.2989 14.406 16.4798 14.1418 16.7269 13.9503C17.4444 13.5403 18.2613 13.3369 19.0872 13.3626C20.2082 13.2571 21.3382 13.4188 22.3845 13.8344C22.6989 14.0192 22.9692 14.2703 23.1767 14.5702C23.3843 14.87 23.5241 15.2114 23.5864 15.5707C23.5894 15.6768 23.6319 15.7778 23.7056 15.8541C23.7793 15.9304 23.8788 15.9764 23.9847 15.9831C24.5348 15.9943 25.085 15.9861 25.6351 15.9869C25.7305 15.9983 25.8268 15.9749 25.9063 15.9209C25.9859 15.867 26.0432 15.7862 26.0679 15.6933C26.0728 14.9514 25.8838 14.221 25.5195 13.5745C25.1553 12.9281 24.6285 12.388 23.9913 12.0078C22.2326 11.1962 20.2804 10.8975 18.3594 11.1461C16.952 11.2038 15.6073 11.744 14.5512 12.6761C14.0663 13.1987 13.738 13.8469 13.6036 14.547C13.4692 15.247 13.5342 15.9708 13.791 16.6357C13.991 17.0812 14.2851 17.478 14.6532 17.7988C15.0213 18.1195 15.4546 18.3567 15.9232 18.4938C18.157 19.3007 20.6054 19.0418 22.8609 19.7553C23.3004 19.9044 23.8123 20.1324 23.947 20.6216C24.0193 20.9148 24.0138 21.2218 23.9311 21.5122C23.8483 21.8027 23.6911 22.0664 23.4751 22.2774C22.537 22.8602 21.4377 23.129 20.3365 23.0451ZM30.5196 8.26566C26.1582 5.79933 21.7958 3.33522 17.4323 0.873348C16.9945 0.628537 16.5013 0.5 15.9997 0.5C15.4981 0.5 15.0048 0.628537 14.567 0.873348C10.2206 3.32778 5.87389 5.7821 1.52698 8.2363C1.1041 8.46679 0.750595 8.80623 0.503129 9.2194C0.255663 9.63258 0.123251 10.1044 0.119629 10.586V25.416C0.126589 25.9063 0.266131 26.3857 0.523455 26.8031C0.780779 27.2206 1.14629 27.5606 1.58123 27.7872C2.82987 28.4669 4.04302 29.2157 5.31429 29.8502C6.04804 30.2424 6.863 30.4585 7.6947 30.4814C8.5264 30.5043 9.352 30.3332 10.1062 29.9819C10.6705 29.6284 11.1297 29.13 11.4359 28.5387C11.7421 27.9474 11.8841 27.2847 11.8471 26.6199C11.8568 21.7257 11.8486 16.8312 11.8508 11.9369C11.8594 11.8834 11.8565 11.8287 11.8424 11.7764C11.8283 11.7241 11.8033 11.6753 11.7691 11.6333C11.7348 11.5913 11.6921 11.5571 11.6437 11.5327C11.5953 11.5084 11.5422 11.4946 11.4881 11.4922C10.9327 11.4832 10.3764 11.4869 9.821 11.4907C9.76957 11.4861 9.71775 11.4924 9.66893 11.5092C9.62011 11.526 9.5754 11.5529 9.53772 11.5882C9.50005 11.6236 9.47026 11.6664 9.45032 11.7141C9.43037 11.7617 9.42073 11.813 9.422 11.8646C9.41453 16.7274 9.4235 21.5916 9.41752 26.4552C9.41879 26.7909 9.31738 27.1189 9.12689 27.3954C8.93639 27.6718 8.66593 27.8834 8.35177 28.0017C7.99 28.1086 7.60975 28.138 7.23585 28.088C6.86194 28.0379 6.5028 27.9096 6.18189 27.7113C5.02512 27.0579 3.86837 26.4047 2.71164 25.7515C2.635 25.7152 2.57132 25.6562 2.52919 25.5826C2.48707 25.509 2.46851 25.4242 2.47602 25.3397C2.47602 20.4469 2.47602 15.5544 2.47602 10.662C2.46798 10.5669 2.49022 10.4716 2.53956 10.3898C2.5889 10.308 2.66283 10.2439 2.75077 10.2067C7.08297 7.76673 11.4143 5.32423 15.7449 2.87916C15.8201 2.8278 15.9091 2.80038 16.0002 2.80051C16.0912 2.80065 16.1802 2.82833 16.2552 2.87992C20.5873 5.32063 24.9191 7.76219 29.2508 10.2046C29.3383 10.2429 29.4117 10.3076 29.4607 10.3896C29.5096 10.4716 29.5318 10.5669 29.524 10.6621C29.5232 15.554 29.5227 20.4463 29.5225 25.3391C29.5302 25.4239 29.5121 25.5091 29.4705 25.5835C29.429 25.6579 29.3661 25.718 29.2899 25.7561C25.024 28.1682 20.7559 30.5768 16.4855 32.982C16.2815 33.0956 16.04 33.2785 15.8014 33.1408C14.683 32.5077 13.5782 31.8501 12.4635 31.211C12.4065 31.1674 12.3378 31.1419 12.2662 31.1376C12.1946 31.1333 12.1234 31.1504 12.0616 31.1869C11.5706 31.4746 11.0538 31.7157 10.5179 31.9072C10.2763 32.0051 9.97908 32.0329 9.81277 32.257C10.0248 32.4877 10.2816 32.6726 10.5675 32.8006C11.8711 33.5554 13.1755 34.3096 14.4805 35.0631C14.9121 35.3341 15.4085 35.4846 15.918 35.4987C16.4275 35.5129 16.9314 35.3903 17.3774 35.1436C21.7245 32.6924 26.0715 30.2401 30.4182 27.7867C30.8527 27.5598 31.218 27.2197 31.4754 26.8024C31.7328 26.3851 31.8727 25.9061 31.8805 25.4159V10.586C31.8769 10.1139 31.7492 9.6511 31.5104 9.24387C31.2716 8.83663 30.9299 8.4993 30.5196 8.26566Z" fill="white"/>
</svg>
