<svg width="83" height="83" viewBox="0 0 83 83" fill="none" xmlns="http://www.w3.org/2000/svg">
<path d="M72.625 63.9792C72.625 68.7551 68.7551 72.625 63.9792 72.625H19.0208C14.2466 72.625 10.375 68.7551 10.375 63.9792V19.0208C10.375 14.2449 14.2466 10.375 19.0208 10.375H63.9792C68.7551 10.375 72.625 14.2449 72.625 19.0208V63.9792Z" fill="#0288D1"/>
<path d="M20.75 32.8542H29.3958V62.25H20.75V32.8542ZM25.047 29.3958H24.9986C22.4186 29.3958 20.75 27.473 20.75 25.0712C20.75 22.6175 22.4705 20.75 25.0971 20.75C27.7272 20.75 29.3474 22.6175 29.3958 25.0712C29.3958 27.4713 27.7272 29.3958 25.047 29.3958ZM62.25 62.25H53.6042V46.5163C53.6042 42.7156 51.4859 40.1219 48.0847 40.1219C45.4892 40.1219 44.0851 41.8718 43.4038 43.5629C43.1548 44.1681 43.2292 45.8419 43.2292 46.6875V62.25H34.5833V32.8542H43.2292V37.3777C44.4759 35.4479 46.4281 32.8542 51.422 32.8542C57.6089 32.8542 62.2483 36.7448 62.2483 45.4321L62.25 62.25Z" fill="white"/>
</svg>
