<svg width="74" height="74" viewBox="0 0 74 74" fill="none" xmlns="http://www.w3.org/2000/svg">
<path d="M36.8569 1.01172C16.504 1.01172 0 17.5129 0 37.8686C0 54.1533 10.5606 67.9687 25.2051 72.8423C27.047 73.1834 27.7234 72.0428 27.7234 71.0692C27.7234 70.1904 27.689 67.2868 27.6734 64.2071C17.4195 66.4367 15.2559 59.8585 15.2559 59.8585C13.5793 55.5983 11.1636 54.4657 11.1636 54.4657C7.81972 52.1781 11.4157 52.2249 11.4157 52.2249C15.1168 52.4851 17.0657 56.0232 17.0657 56.0232C20.3529 61.6579 25.6878 60.0287 27.791 59.0873C28.1217 56.7048 29.0771 55.0791 30.131 54.1587C21.9448 53.2265 13.3388 50.0662 13.3388 35.9438C13.3388 31.92 14.7786 28.6319 17.1365 26.0509C16.7538 25.1224 15.4923 21.3739 17.4935 16.2971C17.4935 16.2971 20.5885 15.3064 27.6318 20.0751C30.5715 19.2582 33.7246 18.8489 36.8569 18.835C39.9892 18.8489 43.1446 19.2582 46.0901 20.0751C53.1251 15.3064 56.2157 16.2971 56.2157 16.2971C58.2218 21.3739 56.9598 25.1224 56.577 26.0509C58.9401 28.6319 60.3701 31.9197 60.3701 35.9438C60.3701 50.0997 51.748 53.217 43.5409 54.1293C44.8628 55.2731 46.0407 57.5162 46.0407 60.9546C46.0407 65.886 45.9979 69.8551 45.9979 71.0692C45.9979 72.05 46.6613 73.1993 48.5298 72.8374C63.1662 67.9583 73.7135 54.1478 73.7135 37.8686C73.7135 17.5129 57.2118 1.01172 36.8569 1.01172Z" fill="#FBA14C"/>
<path d="M13.8042 53.5153C13.7232 53.6982 13.4348 53.7532 13.1726 53.6277C12.9052 53.5074 12.7549 53.2577 12.8416 53.0739C12.9211 52.8854 13.2096 52.8328 13.4764 52.9594C13.7443 53.0793 13.897 53.3314 13.8042 53.5153ZM15.6172 55.1328C15.4414 55.2959 15.0977 55.2201 14.8645 54.9626C14.6234 54.7056 14.5783 54.3622 14.7566 54.1966C14.9379 54.0338 15.2712 54.1099 15.5128 54.3671C15.7539 54.627 15.8007 54.9684 15.6169 55.1331M16.861 57.2025C16.635 57.3595 16.2655 57.2124 16.0375 56.8846C15.8117 56.5571 15.8117 56.1639 16.0424 56.0064C16.2713 55.8489 16.635 55.9905 16.8662 56.3157C17.0917 56.649 17.0917 57.0421 16.8607 57.2028M18.9642 59.5997C18.7622 59.8223 18.3321 59.7628 18.017 59.4587C17.695 59.1615 17.6051 58.7398 17.8077 58.5169C18.0121 58.2937 18.4448 58.3565 18.7622 58.658C19.0822 58.9545 19.1796 59.3795 18.9642 59.5997ZM21.6826 60.4091C21.5938 60.6976 21.1793 60.8288 20.7619 60.7063C20.3451 60.5799 20.0722 60.2417 20.1563 59.9501C20.243 59.6596 20.6593 59.5228 21.0799 59.6541C21.4961 59.7798 21.7693 60.1154 21.6826 60.4091ZM24.7767 60.7522C24.7871 61.0563 24.433 61.3084 23.9948 61.3139C23.554 61.3234 23.1976 61.0774 23.1929 60.7785C23.1929 60.4715 23.5389 60.2218 23.9795 60.2146C24.4177 60.2059 24.7767 60.4502 24.7767 60.7522ZM27.8159 60.6357C27.8685 60.9323 27.5638 61.237 27.1288 61.3179C26.701 61.396 26.305 61.213 26.2503 60.919C26.1972 60.6149 26.5076 60.3105 26.9346 60.2316C27.3705 60.1559 27.7604 60.3342 27.8159 60.6357Z" fill="#FBA14C"/>
</svg>
