<svg width="80" height="80" viewBox="0 0 80 80" fill="none" xmlns="http://www.w3.org/2000/svg">
<path d="M21.6667 26.6667C24.4281 26.6667 26.6667 24.4282 26.6667 21.6667C26.6667 18.9053 24.4281 16.6667 21.6667 16.6667C18.9053 16.6667 16.6667 18.9053 16.6667 21.6667C16.6667 24.4282 18.9053 26.6667 21.6667 26.6667Z" fill="#FBA14C"/>
<path d="M16.6667 33.3333C16.6667 31.4924 18.1591 30 20 30H23.3334C25.1743 30 26.6667 31.4924 26.6667 33.3333V60C26.6667 61.841 25.1743 63.3333 23.3334 63.3333H20C18.1591 63.3333 16.6667 61.841 16.6667 60V33.3333Z" fill="#FBA14C"/>
<path d="M36.6667 63.3333H40C41.841 63.3333 43.3334 61.841 43.3334 60V45C43.3334 40 53.3334 36.6667 53.3334 43.3333V60.0013C53.3334 61.8423 54.8257 63.3333 56.6667 63.3333H60C61.841 63.3333 63.3334 61.841 63.3334 60V40C63.3334 33.3333 58.3334 30 51.6667 30C45 30 43.3334 35 43.3334 35V33.3333C43.3334 31.4924 41.841 30 40 30H36.6667C34.8257 30 33.3334 31.4924 33.3334 33.3333V60C33.3334 61.841 34.8257 63.3333 36.6667 63.3333Z" fill="#FBA14C"/>
<path fill-rule="evenodd" clip-rule="evenodd" d="M66.6667 3.33337C72.1897 3.33337 76.6667 7.81054 76.6667 13.3334V66.6667C76.6667 72.1897 72.1897 76.6667 66.6667 76.6667H13.3333C7.81051 76.6667 3.33334 72.1897 3.33334 66.6667V13.3334C3.33334 7.81054 7.81051 3.33337 13.3333 3.33337H66.6667ZM66.6667 10C68.5077 10 70 11.4924 70 13.3334V66.6667C70 68.5077 68.5077 70 66.6667 70H13.3333C11.4924 70 10 68.5077 10 66.6667V13.3334C10 11.4924 11.4924 10 13.3333 10H66.6667Z" fill="#FBA14C"/>
</svg>
