<svg width="24" height="29" viewBox="0 0 24 29" fill="none" xmlns="http://www.w3.org/2000/svg">
<path d="M21.1667 1H15.6667L14.75 4H9.25L8.33333 1H2.83333C2.3471 1 1.88079 1.15804 1.53697 1.43934C1.19315 1.72064 1 2.10218 1 2.5V26.5C1 26.8978 1.19315 27.2794 1.53697 27.5607C1.88079 27.842 2.3471 28 2.83333 28H21.1667C21.6529 28 22.1192 27.842 22.463 27.5607C22.8068 27.2794 23 26.8978 23 26.5V2.5C23 2.10218 22.8068 1.72064 22.463 1.43934C22.1192 1.15804 21.6529 1 21.1667 1Z" fill="#FBA14C" stroke="black" stroke-width="2"/>
<path d="M13.8333 22H10.1667M15.6667 1H8.33333L9.25 4H14.75L15.6667 1ZM23 26.5V2.5C23 2.10218 22.8068 1.72064 22.463 1.43934C22.1192 1.15804 21.6529 1 21.1667 1H2.83333C2.3471 1 1.88079 1.15804 1.53697 1.43934C1.19315 1.72064 1 2.10218 1 2.5V26.5C1 26.8978 1.19315 27.2794 1.53697 27.5607C1.88079 27.842 2.3471 28 2.83333 28H21.1667C21.6529 28 22.1192 27.842 22.463 27.5607C22.8068 27.2794 23 26.8978 23 26.5Z" stroke="black" stroke-width="2" stroke-linecap="round" stroke-linejoin="round"/>
</svg>
