<svg width="37" height="25" viewBox="0 0 37 25" fill="none" xmlns="http://www.w3.org/2000/svg">
<path d="M34.0556 1H2.94444C1.87056 1 1 1.71227 1 2.59091V21.6818C1 22.5605 1.87056 23.2727 2.94444 23.2727H34.0556C35.1294 23.2727 36 22.5605 36 21.6818V2.59091C36 1.71227 35.1294 1 34.0556 1Z" fill="#FBA14C" stroke="black" stroke-width="2"/>
<path d="M8.77783 7.36365L17.2945 12.9159C17.6378 13.1379 18.0625 13.2586 18.5001 13.2586C18.9376 13.2586 19.3623 13.1379 19.7056 12.9159L28.2223 7.36365" stroke="black" stroke-width="2" stroke-linecap="round" stroke-linejoin="round"/>
<path d="M34.0556 1H2.94444C1.87056 1 1 1.71227 1 2.59091V21.6818C1 22.5605 1.87056 23.2727 2.94444 23.2727H34.0556C35.1294 23.2727 36 22.5605 36 21.6818V2.59091C36 1.71227 35.1294 1 34.0556 1Z" stroke="black" stroke-width="2" stroke-linecap="round" stroke-linejoin="round"/>
</svg>
