<svg width="253" height="253" viewBox="0 0 253 253" fill="none" xmlns="http://www.w3.org/2000/svg">
<path d="M85.7179 33.0971C88.9813 29.8286 93.48 27.8057 98.4471 27.8057C103.414 27.8057 107.913 29.8234 111.176 33.0868C114.45 36.3605 116.473 40.8644 116.473 45.8264C116.473 50.7884 114.45 55.2922 111.176 58.5608C107.913 61.819 103.409 63.8368 98.442 63.8368C93.4749 63.8368 88.9761 61.819 85.7127 58.5505C82.4545 55.2922 80.4419 50.7935 80.4419 45.8315C80.4419 40.8695 82.4545 36.3656 85.7127 33.1022L85.7179 33.0971Z" fill="white"/>
<path opacity="0.97" d="M50.8451 138.04C52.2194 138.714 53.7121 139.116 55.2048 139.229C56.7027 139.342 58.2366 139.178 59.683 138.725C63.5898 137.5 66.8017 134.313 67.198 129.027L69.1231 104.264L75.2896 99.8214V130.659C75.2896 133.238 75.4131 134.895 75.5058 136.203C75.6808 138.565 75.7425 139.456 74.1829 145.921L61.1551 199.849V199.864L61.1448 199.9H61.1294C60.3264 203.277 60.9698 206.664 62.6581 209.413C64.3464 212.161 67.0796 214.272 70.4614 215.085H70.4974V215.095C71.0379 215.229 71.5269 215.322 71.9644 215.378C72.4689 215.44 72.9682 215.471 73.4623 215.471C76.3499 215.471 79.0934 214.483 81.281 212.753C83.4275 211.06 85.0386 208.661 85.7335 205.784L99.5025 148.788L109.632 153.621L108.382 173.865V173.881C108.176 177.365 109.385 180.608 111.516 183.028C113.652 185.452 116.715 187.058 120.215 187.274H120.231L120.395 187.284C120.581 187.305 120.771 187.32 121.013 187.32C124.338 187.32 127.396 186.013 129.671 183.867C131.93 181.73 133.418 178.76 133.624 175.41L135.41 146.662C135.575 144.098 134.942 141.607 133.691 139.476C132.43 137.335 130.556 135.569 128.24 134.463L106.436 124.06V111.923L107.872 113.637H107.877C108.804 114.749 109.921 115.655 111.146 116.319C112.386 116.983 113.755 117.415 115.186 117.569C117.585 117.847 120.205 118.213 122.959 118.599C129.568 119.525 136.934 120.555 142.04 120.555C146.827 120.555 150.136 118.043 151.861 114.677C152.612 113.21 153.04 111.593 153.132 109.977C153.225 108.366 152.988 106.719 152.412 105.185C151.084 101.649 148.078 98.7714 143.311 98.2206H143.296L123.546 95.9816L120.586 93.8712C118.774 91.6115 116.921 89.2129 115.042 86.7885C111.789 82.5883 108.479 78.3109 105.432 74.7284C100.367 68.7626 96.5891 65.6846 92.5279 64.8095C88.1424 63.8676 84.3179 65.4787 79.217 68.8913C72.263 73.5393 63.4765 80.2669 57.4954 84.8479C54.8754 86.8554 52.7804 88.4562 51.8282 89.1459C50.5002 90.1085 49.4038 91.3438 48.6111 92.7542C47.8082 94.1749 47.314 95.7448 47.1905 97.361V97.3765L44.869 127.303C44.4573 132.589 47.1647 136.228 50.8451 138.04Z" fill="white"/>
<path d="M110.688 221.375V193.703V189.765H114.641H138.359V166.031V162.078H142.313H166.031V138.359V134.422H169.984H193.703V110.687V106.734H197.656H225.328V114.641V221.375H110.688Z" fill="white"/>
</svg>
