<svg width="36" height="36" viewBox="0 0 36 36" fill="none" xmlns="http://www.w3.org/2000/svg">
<path d="M16.1953 6.885C12.6098 6.885 9.70312 9.78701 9.70312 13.3668V27.7812C9.70312 30.4565 7.531 32.625 4.85156 32.625C2.17212 32.625 0 30.4565 0 27.7812C0 26.8119 0.787 26.0262 1.75781 26.0262C2.72862 26.0262 3.51562 26.8119 3.51562 27.7812C3.51562 28.5179 4.11374 29.115 4.85156 29.115C5.58938 29.115 6.1875 28.5179 6.1875 27.7812V13.3668C6.1875 7.84847 10.6681 3.375 16.1953 3.375C20.7565 3.375 24.6049 6.42141 25.8109 10.5874C31.4681 10.7637 36 15.3978 36 21.0888C36 21.1763 35.9937 21.2622 35.9813 21.3462C35.9937 21.4302 36 21.5162 36 21.6036V30.87C36 31.8393 35.213 32.625 34.2421 32.625H16.1953C15.2245 32.625 14.4375 31.8393 14.4375 30.87V21.6036C14.4375 20.6343 15.2245 19.8486 16.1953 19.8486C19.7809 19.8486 22.6874 16.9466 22.6874 13.3668C22.6874 9.78701 19.7809 6.885 16.1953 6.885ZM32.503 21.3462C32.4907 21.2622 32.4844 21.1762 32.4844 21.0888C32.4844 17.4599 29.7171 14.4763 26.1747 14.1265C25.83 18.7024 22.3985 22.4186 17.9531 23.2049V29.115H23.461V25.2072C23.461 24.2379 24.248 23.4522 25.2187 23.4522C26.1895 23.4522 26.9766 24.2379 26.9766 25.2072V29.115H32.4844V21.6036C32.4844 21.5162 32.4907 21.4302 32.503 21.3462Z" fill="white"/>
</svg>
