<svg width="36" height="36" viewBox="0 0 36 36" fill="none" xmlns="http://www.w3.org/2000/svg">
<g clip-path="url(#clip0_238_246)">
<path d="M14.4002 6.00019H16.8002M10.8002 9.60019V3.60019C10.8002 2.27471 11.8747 1.2002 13.2002 1.2002H22.8002C24.1257 1.2002 25.2002 2.27471 25.2002 3.60019V15.6002C25.2002 16.9257 24.1257 18.0002 22.8002 18.0002H13.2002C11.8747 18.0002 10.8002 19.0747 10.8002 20.4002V32.4002C10.8002 33.7257 11.8747 34.8002 13.2002 34.8002H22.8002C24.1257 34.8002 25.2002 33.7257 25.2002 32.4002V26.4002M19.2002 10.8002H3.60019C2.27471 10.8002 1.2002 11.8747 1.2002 13.2002V25.2002C1.2002 26.5257 2.27471 27.6002 3.60019 27.6002H10.8002M16.8002 25.2002H32.4002C33.7257 25.2002 34.8002 24.1257 34.8002 22.8002V10.8002C34.8002 9.47472 33.7257 8.40019 32.4002 8.40019H25.2002M19.2002 30.0002H21.6002" stroke="white" stroke-width="2"/>
</g>
<defs>
<clipPath id="clip0_238_246">
<rect width="36" height="36" fill="white"/>
</clipPath>
</defs>
</svg>
