<svg width="33" height="33" viewBox="0 0 33 33" fill="none" xmlns="http://www.w3.org/2000/svg">
<path d="M0.677246 6.29189C0.677246 7.13757 1.36282 7.82314 2.2085 7.82314C3.05417 7.82314 3.73975 7.13757 3.73975 6.29189H0.677246ZM4.45433 4.0236L3.87145 2.60762C3.85273 2.61534 3.83413 2.62343 3.81572 2.63188L4.45433 4.0236ZM10.4425 2.51889L10.5983 4.0422C10.6091 4.0411 10.6199 4.03987 10.6307 4.03855L10.4425 2.51889ZM15.5467 2.20856L15.5441 3.73981H15.5467V2.20856ZM17.4516 2.20856V3.73981H17.4542L17.4516 2.20856ZM22.5557 2.51889L22.3677 4.03855C22.3785 4.03989 22.3894 4.04112 22.4002 4.04222L22.5557 2.51889ZM28.546 4.0236L29.1846 2.63188C29.1663 2.6234 29.1475 2.61532 29.1289 2.6076L28.546 4.0236ZM29.2606 6.29189C29.2606 7.13757 29.9462 7.82314 30.7918 7.82314C31.6375 7.82314 32.3231 7.13757 32.3231 6.29189H29.2606ZM3.73975 6.29189C3.73975 5.44621 3.05417 4.76064 2.2085 4.76064C1.36282 4.76064 0.677246 5.44621 0.677246 6.29189H3.73975ZM6.11625 9.17881L5.66837 10.6431C5.68286 10.6475 5.69744 10.6517 5.71206 10.6558L6.11625 9.17881ZM15.5467 10.3752V8.84381L15.524 8.84414L15.5467 10.3752ZM17.4516 10.3752L17.4742 8.84397H17.4516V10.3752ZM26.8841 9.17881L27.2883 10.6558C27.3028 10.6517 27.3175 10.6475 27.332 10.6431L26.8841 9.17881ZM32.3231 6.29189C32.3231 5.44621 31.6375 4.76064 30.7918 4.76064C29.9462 4.76064 29.2606 5.44621 29.2606 6.29189H32.3231ZM3.73975 6.29189C3.73975 5.44621 3.05417 4.76064 2.2085 4.76064C1.36282 4.76064 0.677246 5.44621 0.677246 6.29189H3.73975ZM0.677246 16.5002C0.677246 17.3458 1.36282 18.0314 2.2085 18.0314C3.05417 18.0314 3.73975 17.3458 3.73975 16.5002H0.677246ZM32.3231 6.29189C32.3231 5.44621 31.6375 4.76064 30.7918 4.76064C29.9462 4.76064 29.2606 5.44621 29.2606 6.29189H32.3231ZM29.2606 16.5002C29.2606 17.3458 29.9462 18.0314 30.7918 18.0314C31.6375 18.0314 32.3231 17.3458 32.3231 16.5002H29.2606ZM3.73975 16.5002C3.73975 15.6545 3.05417 14.9689 2.2085 14.9689C1.36282 14.9689 0.677246 15.6545 0.677246 16.5002H3.73975ZM6.11625 19.3871L5.66837 20.8514C5.68286 20.8559 5.69744 20.8601 5.71206 20.864L6.11625 19.3871ZM15.5467 20.5835V19.052L15.524 19.0525L15.5467 20.5835ZM17.4516 20.5835L17.4742 19.0522H17.4516V20.5835ZM26.8841 19.3871L27.2883 20.864C27.3028 20.8601 27.3175 20.8559 27.332 20.8514L26.8841 19.3871ZM32.3231 16.5002C32.3231 15.6545 31.6375 14.9689 30.7918 14.9689C29.9462 14.9689 29.2606 15.6545 29.2606 16.5002H32.3231ZM3.73975 16.5002C3.73975 15.6545 3.05417 14.9689 2.2085 14.9689C1.36282 14.9689 0.677246 15.6545 0.677246 16.5002H3.73975ZM6.11625 29.5954L5.66837 31.0597C5.68286 31.0642 5.69744 31.0685 5.71206 31.0724L6.11625 29.5954ZM15.5467 30.7918V29.2604L15.524 29.2608L15.5467 30.7918ZM17.4516 30.7918L17.4742 29.2606H17.4516V30.7918ZM26.8841 29.5954L27.2883 31.0724C27.3028 31.0685 27.3175 31.0642 27.332 31.0597L26.8841 29.5954ZM32.3231 16.5002C32.3231 15.6545 31.6375 14.9689 30.7918 14.9689C29.9462 14.9689 29.2606 15.6545 29.2606 16.5002H32.3231ZM3.73975 6.29189C3.73975 6.41119 3.67472 6.37795 3.86884 6.1825C4.07068 5.97931 4.45333 5.70881 5.09294 5.41532L3.81572 2.63188C2.99145 3.0101 2.25119 3.46541 1.69608 4.02427C1.13325 4.59088 0.677246 5.35593 0.677246 6.29189H3.73975ZM5.0372 5.43958C6.81386 4.70823 8.68691 4.23759 10.5983 4.0422L10.2868 0.995584C8.08186 1.22096 5.92106 1.76392 3.87145 2.60762L5.0372 5.43958ZM10.6307 4.03855C12.2606 3.83675 13.9017 3.73697 15.5441 3.73981L15.5494 0.677309C13.7794 0.674267 12.011 0.781781 10.2544 0.999239L10.6307 4.03855ZM15.5467 3.73981H17.4516V0.677309H15.5467V3.73981ZM17.4542 3.73981C19.0966 3.73697 20.7376 3.83675 22.3677 4.03855L22.7438 0.999239C20.9873 0.781781 19.2188 0.674267 17.4489 0.677309L17.4542 3.73981ZM22.4002 4.04222C24.3122 4.23742 26.1858 4.70807 27.9631 5.4396L29.1289 2.6076C27.0784 1.7637 24.9169 1.22074 22.7113 0.995564L22.4002 4.04222ZM27.9074 5.41532C28.547 5.70881 28.9296 5.97931 29.1315 6.1825C29.3257 6.37795 29.2606 6.41119 29.2606 6.29189H32.3231C32.3231 5.35593 31.867 4.59088 31.3043 4.02427C30.7492 3.46541 30.0088 3.0101 29.1846 2.63188L27.9074 5.41532ZM0.677246 6.29189C0.677246 7.54466 1.48575 8.47364 2.31362 9.08546C3.17155 9.7195 4.33028 10.2338 5.66837 10.6431L6.56413 7.71453C5.39913 7.35817 4.60398 6.97007 4.13381 6.62258C3.63358 6.25288 3.73975 6.12121 3.73975 6.29189H0.677246ZM5.71206 10.6558C8.92258 11.5343 12.2411 11.9554 15.5694 11.9063L15.524 8.84414C12.4842 8.88893 9.45296 8.50439 6.52043 7.70187L5.71206 10.6558ZM15.5467 11.9065H17.4516V8.84397L15.5467 8.84381V11.9065ZM17.4289 11.9063C20.7579 11.9556 24.077 11.5345 27.2883 10.6558L26.4798 7.70187C23.5468 8.50457 20.5149 8.88895 17.4742 8.84397L17.4289 11.9063ZM27.332 10.6431C28.6695 10.234 29.8284 9.72026 30.6865 9.08646C31.515 8.47437 32.3231 7.54533 32.3231 6.29189H29.2606C29.2606 6.12258 29.3663 6.25418 28.8667 6.62311C28.3968 6.97034 27.6017 7.35803 26.4361 7.71453L27.332 10.6431ZM0.677246 6.29189V16.5002H3.73975V6.29189H0.677246ZM29.2606 6.29189V16.5002H32.3231V6.29189H29.2606ZM0.677246 16.5002C0.677246 17.7529 1.48575 18.6819 2.31362 19.2938C3.17155 19.9279 4.33028 20.4422 5.66837 20.8514L6.56413 17.9228C5.39913 17.5665 4.60398 17.1784 4.13381 16.8309C3.63358 16.4612 3.73975 16.3295 3.73975 16.5002H0.677246ZM5.71206 20.864C8.92258 21.7428 12.2411 22.1637 15.5694 22.1145L15.524 19.0525C12.4842 19.0974 9.45296 18.7127 6.52043 17.9101L5.71206 20.864ZM15.5467 22.1147H17.4516V19.0522L15.5467 19.052V22.1147ZM17.4289 22.1145C20.7579 22.164 24.077 21.743 27.2883 20.864L26.4798 17.9101C23.5468 18.7129 20.5149 19.0972 17.4742 19.0522L17.4289 22.1145ZM27.332 20.8514C28.6695 20.4422 29.8284 19.9285 30.6865 19.2948C31.515 18.6827 32.3231 17.7537 32.3231 16.5002H29.2606C29.2606 16.3309 29.3663 16.4626 28.8667 16.8315C28.3968 17.1786 27.6017 17.5663 26.4361 17.9228L27.332 20.8514ZM0.677246 16.5002V26.7085H3.73975V16.5002H0.677246ZM0.677246 26.7085C0.677246 27.9613 1.48575 28.8902 2.31362 29.5021C3.17155 30.1363 4.33028 30.6506 5.66837 31.0597L6.56413 28.1311C5.39913 27.7749 4.60398 27.3867 4.13381 27.0393C3.63358 26.6695 3.73975 26.5378 3.73975 26.7085H0.677246ZM5.71206 31.0724C8.92258 31.9511 12.2411 32.3721 15.5694 32.3229L15.524 29.2608C12.4842 29.3057 9.45296 28.9211 6.52043 28.1185L5.71206 31.0724ZM15.5467 32.3231H17.4516V29.2606L15.5467 29.2604V32.3231ZM17.4289 32.3229C20.7579 32.3723 24.077 31.9513 27.2883 31.0724L26.4798 28.1185C23.5468 28.9213 20.5149 29.3055 17.4742 29.2606L17.4289 32.3229ZM27.332 31.0597C28.6701 30.6506 29.8288 30.1363 30.6867 29.5021C31.5146 28.8902 32.3231 27.9613 32.3231 26.7085H29.2606C29.2606 26.5378 29.3667 26.6695 28.8665 27.0393C28.3963 27.3867 27.6011 27.7749 26.4361 28.1311L27.332 31.0597ZM32.3231 26.7085V16.5002H29.2606V26.7085H32.3231Z" fill="white"/>
</svg>
