<svg width="1152" height="616" viewBox="0 0 1152 616" fill="none" xmlns="http://www.w3.org/2000/svg">
<path d="M0 0H1152V616H0V0Z" fill="white"/>
<path d="M822.465 130.814C770.71 154.11 746.094 171.033 728.289 205.042C712.161 246.006 755.424 274.65 713.952 332.246L697.248 327.934L701.28 332.246L728.289 337.482C758.241 328.858 718.785 362.43 737.217 379.37C750.644 391.71 768.246 406.714 822.465 388.61C886.113 367.358 921.249 337.482 921.249 337.482C921.249 337.482 960.658 300.99 967.905 246.006C975.106 184.461 984.249 152.341 1010.24 99.398C933.413 99.8318 891.985 105.641 822.465 130.814Z" fill="#037407"/>
<path d="M814.464 130.592C762.709 153.888 738.093 170.811 720.288 204.82C704.16 245.784 709.344 270.116 667.872 327.712L663.615 346.789L671.642 362.038L678.816 353.276C708.768 344.652 710.784 362.208 729.216 379.148C742.643 391.488 760.245 406.492 814.464 388.388C878.112 367.136 913.248 337.26 913.248 337.26C913.248 337.26 952.657 300.769 959.904 245.784C967.105 184.239 976.248 152.119 1002.24 99.176C925.411 99.6098 883.984 105.419 814.464 130.592Z" fill="#0BB512"/>
<path d="M756.56 409.705C759.307 409.705 761.842 409.366 764.693 409.14L770.819 421.565C771.981 424.05 774.305 425.406 777.157 424.954C779.797 424.389 781.698 422.356 782.015 419.306L783.917 405.639C789.092 404.17 794.267 402.024 799.337 399.652L808.843 408.801C810.849 410.835 813.384 411.287 816.025 409.705C818.349 408.35 819.299 405.639 818.771 402.702L816.13 389.147C820.461 385.871 824.792 382.144 828.699 377.965L840.529 383.274C843.17 384.403 845.599 383.839 847.606 381.24C849.402 379.207 849.611 376.27 848.134 373.785L841.268 362.038C844.437 357.294 846.972 352.211 849.402 346.789L862.287 347.467C865.033 347.58 867.356 345.998 868.307 343.175C869.151 340.351 868.307 337.64 866.088 335.832L856.056 327.248C857.429 321.826 858.485 315.952 858.906 309.853L871.158 305.787C873.799 304.77 875.489 302.624 875.489 299.574C875.489 296.637 873.799 294.491 871.158 293.474L858.906 289.295C858.485 283.195 857.429 277.548 856.056 272.013L866.088 263.315C868.307 261.621 869.151 259.023 868.307 256.199C867.356 253.375 865.033 251.794 862.287 251.906L849.402 252.472C846.972 247.049 844.437 241.967 841.268 237.223L848.134 225.475C849.611 223.103 849.402 220.166 847.606 218.133C845.599 215.535 843.17 214.857 840.529 216.1L828.699 221.183C824.792 217.229 820.461 213.389 816.13 210.113L818.771 196.672C819.299 193.622 818.349 190.911 816.025 189.555C813.384 188.087 810.849 188.313 808.843 190.572L799.337 199.496C794.267 197.124 789.092 195.203 783.917 193.622L782.015 179.954C781.698 177.018 779.797 174.871 777.157 174.419C774.305 173.968 771.981 175.21 770.819 177.695L764.693 190.121C761.842 189.895 759.307 189.669 756.56 189.669C753.709 189.669 751.174 189.895 748.217 190.121L742.196 177.695C741.034 175.21 738.711 173.968 735.754 174.419C733.113 174.871 731.317 177.018 730.895 179.954L729.099 193.509C723.818 195.203 718.643 197.124 713.679 199.496L704.173 190.572C702.061 188.313 699.526 188.087 696.991 189.555C694.667 190.911 693.716 193.622 694.245 196.672L696.885 210.113C692.449 213.389 688.119 217.229 684.21 221.183L672.487 216.1C669.846 214.857 667.311 215.535 665.304 218.133C663.615 220.166 663.404 223.103 664.777 225.362L671.747 237.223C668.579 241.967 666.044 247.049 663.615 252.472L650.623 251.906C647.877 251.794 645.553 253.375 644.708 256.199C643.864 259.023 644.603 261.621 646.821 263.315L656.961 272.013C655.588 277.548 654.426 283.195 654.109 289.295L641.857 293.474C639.111 294.378 637.632 296.524 637.632 299.574C637.632 302.624 639.111 304.77 641.857 305.787L654.109 309.966C654.426 315.952 655.588 321.826 656.961 327.248L646.821 335.832C644.603 337.64 643.864 340.351 644.708 343.175C645.553 345.998 647.877 347.58 650.623 347.467L663.615 346.789C666.044 352.211 668.579 357.294 671.642 362.038L664.882 373.785C663.298 376.27 663.509 379.207 665.304 381.24C667.311 383.839 669.846 384.403 672.487 383.274L684.21 377.965C688.119 382.144 692.449 385.871 696.885 389.147L694.245 402.702C693.716 405.639 694.667 408.35 696.991 409.705C699.631 411.287 702.166 410.835 704.173 408.801L713.573 399.652C718.643 402.024 723.818 404.17 729.099 405.639L730.895 419.306C731.317 422.356 733.113 424.389 735.754 424.954C738.711 425.406 741.034 424.05 742.196 421.565L748.217 409.14C751.068 409.366 753.709 409.705 756.56 409.705ZM783.072 292.458C778.107 278.225 768.39 270.431 756.244 270.431C754.448 270.431 752.336 270.657 748.956 271.448L718.643 216.1C729.944 210.113 742.83 206.838 756.56 206.838C802.611 206.838 838.733 244.226 842.008 292.458H783.072ZM670.797 299.687C670.797 268.285 684.633 240.611 706.497 223.894L737.021 279.581C731.317 285.906 728.677 292.796 728.677 300.138C728.677 307.255 731.212 313.806 737.021 320.358L705.757 375.028C684.422 358.197 670.797 330.863 670.797 299.687ZM743.569 300.025C743.569 292.345 749.695 286.358 756.455 286.358C763.637 286.358 769.552 292.345 769.552 300.025C769.552 307.593 763.637 313.806 756.455 313.806C749.695 313.806 743.569 307.593 743.569 300.025ZM756.56 392.536C742.513 392.536 729.416 389.034 717.903 382.935L748.956 328.603C752.23 329.507 754.448 329.733 756.244 329.733C768.496 329.733 778.213 321.713 783.072 307.142H842.008C838.627 355.148 802.505 392.536 756.56 392.536Z" fill="white"/>
<path d="M858.75 205.647C859.343 206.281 859.958 206.793 860.618 207.403L859.434 211.492C859.184 212.296 859.412 213.124 860.118 213.685C860.801 214.173 861.621 214.175 862.304 213.591L865.469 211.087C866.881 211.966 868.429 212.699 870 213.359L870.206 217.523C870.229 218.424 870.684 219.107 871.572 219.376C872.346 219.621 873.098 219.257 873.576 218.502L875.739 214.974C877.333 215.269 879.018 215.466 880.703 215.469L882.183 219.343C882.525 220.196 883.163 220.635 884.119 220.539C884.916 220.516 885.554 219.932 885.736 219.056L886.623 214.942C888.263 214.652 889.834 214.143 891.451 213.537L894.093 216.658C894.662 217.316 895.482 217.512 896.256 217.123C897.007 216.71 897.372 215.932 897.257 215.03L896.825 210.866C898.214 210.015 899.625 208.995 900.945 207.779L904.407 209.732C905.181 210.123 905.978 210.051 906.593 209.394C907.185 208.762 907.253 207.91 906.889 207.081L905.089 203.353C906.228 201.942 907.139 200.482 907.958 198.974L911.875 199.417C912.695 199.565 913.4 199.2 913.788 198.398C914.152 197.57 913.969 196.693 913.355 196.084L910.462 193.23C911.032 191.502 911.51 189.822 911.783 188.069L915.631 187.125C916.427 186.956 916.974 186.275 916.997 185.423C917.088 184.4 916.701 183.693 915.881 183.351L912.305 181.714C912.26 179.961 912.1 178.134 911.827 176.429L915.105 174.144C915.834 173.61 916.176 172.807 915.948 171.978C915.674 171.053 915.082 170.516 914.194 170.539L910.346 170.266C909.731 168.584 909.002 166.976 908.205 165.441L910.55 162.059C911.074 161.354 911.096 160.453 910.618 159.746C910.094 158.99 909.343 158.721 908.591 158.988L904.766 160.248C904.196 159.541 903.695 158.907 903.103 158.273C902.488 157.615 901.896 157.078 901.213 156.444L902.42 152.379C902.67 151.576 902.419 150.772 901.691 150.186C901.03 149.674 900.21 149.721 899.527 150.256L896.408 152.76C894.928 151.905 893.425 151.124 891.876 150.488L891.625 146.373C891.625 145.398 891.124 144.764 890.282 144.495C889.507 144.251 888.756 144.615 888.255 145.393L886.115 148.897C884.498 148.578 882.79 148.405 881.151 148.354L879.647 144.553C879.329 143.676 878.645 143.236 877.689 143.332C876.915 143.38 876.277 143.963 876.118 144.767L875.23 148.93C873.591 149.22 872.02 149.729 870.403 150.335L867.716 147.214C867.146 146.556 866.326 146.36 865.575 146.773C864.824 147.185 864.459 147.916 864.596 148.792L865.029 153.006C863.618 153.881 862.229 154.828 860.931 156.068L857.447 154.139C856.672 153.7 855.921 153.82 855.306 154.477C854.691 155.134 854.578 155.937 854.965 156.79L856.764 160.519C855.626 161.881 854.692 163.414 853.896 164.898L849.979 164.405C849.136 164.282 848.43 164.695 848.043 165.498C847.656 166.301 847.839 167.178 848.454 167.788L851.391 170.642C850.822 172.37 850.344 174.049 850.049 175.778L846.223 176.746C845.381 176.916 844.834 177.597 844.811 178.449C844.72 179.472 845.153 180.178 845.95 180.545L849.548 182.109C849.549 183.911 849.731 185.713 850.027 187.443L846.726 189.751C846.02 190.262 845.678 191.065 845.906 191.893C846.156 192.843 846.794 193.331 847.637 193.357L851.508 193.557C852.123 195.239 852.806 196.896 853.649 198.431L851.281 201.788C850.757 202.542 850.735 203.395 851.19 204.126C851.737 204.906 852.511 205.151 853.263 204.884L857.065 203.599C857.635 204.306 858.136 204.988 858.75 205.647ZM888.1 186.525C889.899 182.314 889.375 178.393 886.756 175.588C886.368 175.174 885.867 174.735 884.979 174.125L889.6 155.21C893.243 156.53 896.682 158.8 899.642 161.97C909.572 172.602 909.824 188.992 900.808 200.132L888.1 186.525ZM862.434 162.159C868.764 155.398 877.326 152.634 885.41 154.083L880.767 173.12C878.262 173.165 876.304 174.039 874.824 175.619C873.389 177.152 872.615 179.147 872.547 181.899L854.786 186.451C853.578 177.902 856.15 168.871 862.434 162.159ZM878.057 179.034C879.606 177.38 882.133 177.505 883.591 179.066C885.139 180.724 885.208 183.379 883.66 185.033C882.134 186.662 879.607 186.634 878.058 184.976C876.601 183.415 876.532 180.663 878.057 179.034ZM862.211 201.95C859.182 198.707 857.064 194.929 855.811 190.958L873.459 186.43C873.982 187.38 874.415 187.941 874.802 188.356C877.444 191.185 881.156 191.701 885.14 189.686L897.848 203.294C887.443 212.849 872.118 212.558 862.211 201.95Z" fill="white"/>
<path d="M232.975 335.763C232.975 344.005 231.625 351.223 228.925 357.42C226.281 363.555 222.625 368.669 217.956 372.759C213.344 376.85 207.916 379.918 201.672 381.963C195.484 384.009 188.819 385.031 181.675 385.031C178.919 385.031 175.881 384.64 172.563 383.858C169.3 383.076 165.981 382.114 162.606 380.971C159.231 379.768 155.969 378.504 152.819 377.181C149.725 375.797 146.969 374.504 144.55 373.301L148.263 336.124C153.044 339.192 158.331 341.538 164.125 343.163C169.975 344.727 175.713 345.509 181.338 345.509C182.406 345.509 183.7 345.479 185.219 345.418C186.738 345.298 188.172 345.027 189.522 344.606C190.928 344.125 192.109 343.433 193.066 342.531C194.022 341.629 194.5 340.335 194.5 338.651C194.5 337.508 194.163 336.545 193.488 335.763C192.813 334.921 191.941 334.259 190.872 333.778C189.803 333.237 188.594 332.846 187.244 332.605C185.894 332.304 184.572 332.094 183.278 331.973C181.984 331.853 180.775 331.793 179.65 331.793C178.525 331.793 177.625 331.793 176.95 331.793C172.113 331.793 167.697 330.891 163.703 329.086C159.766 327.281 156.363 324.785 153.494 321.597C150.681 318.348 148.488 314.528 146.913 310.137C145.338 305.685 144.55 300.873 144.55 295.699C144.55 288.601 145.872 282.254 148.516 276.66C151.216 271.005 154.788 266.223 159.231 262.313C163.731 258.342 168.878 255.304 174.672 253.199C180.466 251.093 186.456 250.041 192.644 250.041C195.4 250.041 198.241 250.161 201.166 250.402C204.091 250.582 206.988 250.943 209.856 251.484C212.781 252.026 215.622 252.718 218.378 253.56C221.134 254.402 223.75 255.455 226.225 256.718L223.019 293.353C219.194 291.97 215.172 290.827 210.953 289.924C206.791 288.962 202.713 288.48 198.719 288.48C197.988 288.48 197.031 288.511 195.85 288.571C194.725 288.571 193.516 288.661 192.222 288.841C190.984 288.962 189.719 289.172 188.425 289.473C187.131 289.774 185.978 290.195 184.966 290.736C183.953 291.218 183.138 291.879 182.519 292.722C181.9 293.564 181.619 294.556 181.675 295.699C181.731 297.023 182.181 298.106 183.025 298.948C183.925 299.73 185.05 300.361 186.4 300.843C187.806 301.264 189.325 301.564 190.956 301.745C192.644 301.925 194.303 302.046 195.934 302.106C197.566 302.106 199.084 302.106 200.491 302.106C201.897 302.046 203.05 302.076 203.95 302.196C208.45 302.497 212.5 303.52 216.1 305.264C219.7 307.009 222.738 309.325 225.213 312.212C227.744 315.1 229.656 318.559 230.95 322.589C232.3 326.559 232.975 330.951 232.975 335.763Z" fill="#068DB1"/>
<path d="M325.534 254.733L324.691 292.992L299.547 294.075L293.134 379.617L257.528 381.602L257.697 296.06L232.553 297.504L233.566 254.913L325.534 254.733Z" fill="#068DB1"/>
<path d="M410.922 298.767C410.922 303.58 410.106 308.182 408.475 312.573C406.844 316.904 404.678 320.995 401.978 324.845C399.334 328.635 396.297 332.154 392.866 335.402C389.491 338.591 386.059 341.478 382.572 344.065H409.234L407.209 381.602L328.234 378.715V345.87C331.216 344.787 334.338 343.493 337.6 341.989C340.919 340.425 344.153 338.651 347.303 336.666C350.509 334.68 353.519 332.455 356.331 329.988C359.2 327.522 361.703 324.845 363.841 321.957C366.034 319.01 367.75 315.822 368.988 312.393C370.281 308.964 370.928 305.264 370.928 301.294C370.928 299.008 370.534 296.993 369.747 295.248C369.016 293.504 367.975 292.06 366.625 290.917C365.275 289.714 363.7 288.841 361.9 288.3C360.156 287.698 358.272 287.398 356.247 287.398C354.559 287.398 352.844 287.608 351.1 288.029C349.356 288.39 347.641 288.932 345.953 289.654C344.266 290.375 342.663 291.278 341.144 292.361C339.681 293.383 338.359 294.556 337.178 295.88L329.753 260.508C331.834 258.282 334.225 256.417 336.925 254.913C339.625 253.409 342.466 252.206 345.447 251.304C348.428 250.341 351.466 249.65 354.559 249.229C357.653 248.807 360.691 248.597 363.672 248.597C370.309 248.597 376.497 249.89 382.234 252.477C387.972 255.004 392.95 258.523 397.169 263.034C401.444 267.486 404.791 272.78 407.209 278.916C409.684 285.052 410.922 291.669 410.922 298.767Z" fill="#0BB512"/>
<path d="M463.825 256.718L454.544 379.617L418.938 381.602V259.245L463.825 256.718Z" fill="#068DB1"/>
<path d="M550.478 298.767C550.478 303.58 549.663 308.182 548.031 312.573C546.4 316.904 544.234 320.995 541.534 324.845C538.891 328.635 535.853 332.154 532.422 335.402C529.047 338.591 525.616 341.478 522.128 344.065H548.791L546.766 381.602L467.791 378.715V345.87C470.772 344.787 473.894 343.493 477.156 341.989C480.475 340.425 483.709 338.651 486.859 336.666C490.066 334.68 493.075 332.455 495.888 329.988C498.756 327.522 501.259 324.845 503.397 321.957C505.591 319.01 507.306 315.822 508.544 312.393C509.838 308.964 510.484 305.264 510.484 301.294C510.484 299.008 510.091 296.993 509.303 295.248C508.572 293.504 507.531 292.06 506.181 290.917C504.831 289.714 503.256 288.841 501.456 288.3C499.713 287.698 497.828 287.398 495.803 287.398C494.116 287.398 492.4 287.608 490.656 288.029C488.913 288.39 487.197 288.932 485.509 289.654C483.822 290.375 482.219 291.278 480.7 292.361C479.238 293.383 477.916 294.556 476.734 295.88L469.309 260.508C471.391 258.282 473.781 256.417 476.481 254.913C479.181 253.409 482.022 252.206 485.003 251.304C487.984 250.341 491.022 249.65 494.116 249.229C497.209 248.807 500.247 248.597 503.228 248.597C509.866 248.597 516.053 249.89 521.791 252.477C527.528 255.004 532.506 258.523 536.725 263.034C541 267.486 544.347 272.78 546.766 278.916C549.241 285.052 550.478 291.669 550.478 298.767Z" fill="#0BB512"/>
<path d="M653.416 312.122C653.416 320.544 652.403 328.154 650.378 334.951C648.353 341.689 645.513 347.704 641.856 352.998C638.256 358.232 633.953 362.743 628.947 366.533C623.941 370.323 618.456 373.451 612.494 375.918C606.531 378.324 600.175 380.129 593.425 381.332C586.731 382.475 579.841 383.046 572.753 383.046C570.109 383.046 567.522 382.986 564.991 382.866C562.459 382.685 559.872 382.445 557.228 382.144L559.591 261.049C565.778 258.944 572.134 257.47 578.659 256.628C585.241 255.725 591.766 255.274 598.234 255.274C606.278 255.274 613.675 256.568 620.425 259.154C627.175 261.741 632.997 265.471 637.891 270.343C642.784 275.216 646.581 281.172 649.281 288.21C652.038 295.248 653.416 303.219 653.416 312.122ZM618.822 317.897C618.878 314.648 618.541 311.52 617.809 308.513C617.134 305.505 615.981 302.858 614.35 300.572C612.775 298.226 610.75 296.361 608.275 294.977C605.8 293.534 602.847 292.752 599.416 292.631L596.041 348.577C599.416 348.035 602.481 346.862 605.238 345.057C607.994 343.193 610.356 340.937 612.325 338.29C614.35 335.583 615.897 332.605 616.966 329.357C618.091 326.048 618.709 322.649 618.822 319.16V317.897Z" fill="#0BB512"/>
</svg>
