<svg width="1152" height="616" viewBox="0 0 1152 616" fill="none" xmlns="http://www.w3.org/2000/svg">
<path d="M819.965 149.638C768.21 172.934 743.594 189.857 725.789 223.866C709.661 264.83 752.924 293.474 711.452 351.07L694.748 346.758L698.78 351.07L725.789 356.306C755.741 347.682 716.285 381.254 734.717 398.194C748.144 410.534 765.746 425.538 819.965 407.434C883.613 386.182 918.749 356.306 918.749 356.306C918.749 356.306 958.158 319.814 965.405 264.83C972.606 203.285 981.749 171.165 1007.74 118.222C930.913 118.656 889.485 124.465 819.965 149.638Z" fill="#037407"/>
<path d="M811.964 149.416C760.209 172.712 735.593 189.635 717.788 223.644C701.66 264.608 706.844 288.94 665.372 346.536L661.115 365.613L669.142 380.862L676.316 372.1C706.268 363.476 708.284 381.032 726.716 397.972C740.143 410.312 757.745 425.316 811.964 407.212C875.612 385.96 910.748 356.084 910.748 356.084C910.748 356.084 950.157 319.593 957.404 264.608C964.605 203.063 973.748 170.943 999.74 118C922.911 118.434 881.484 124.243 811.964 149.416Z" fill="#0BB512"/>
<path d="M754.06 428.529C756.807 428.529 759.342 428.19 762.193 427.964L768.319 440.389C769.481 442.874 771.805 444.23 774.657 443.778C777.297 443.213 779.198 441.18 779.515 438.13L781.417 424.463C786.592 422.994 791.767 420.848 796.837 418.476L806.343 427.625C808.349 429.659 810.884 430.111 813.525 428.529C815.849 427.174 816.799 424.463 816.271 421.526L813.63 407.971C817.961 404.695 822.292 400.968 826.199 396.789L838.029 402.098C840.67 403.227 843.099 402.663 845.106 400.064C846.902 398.031 847.111 395.094 845.634 392.609L838.768 380.862C841.937 376.118 844.472 371.035 846.902 365.613L859.787 366.291C862.533 366.404 864.856 364.822 865.807 361.999C866.651 359.175 865.807 356.464 863.588 354.656L853.556 346.072C854.929 340.65 855.985 334.776 856.406 328.677L868.658 324.611C871.299 323.594 872.989 321.448 872.989 318.398C872.989 315.461 871.299 313.315 868.658 312.298L856.406 308.119C855.985 302.019 854.929 296.372 853.556 290.837L863.588 282.139C865.807 280.445 866.651 277.847 865.807 275.023C864.856 272.199 862.533 270.618 859.787 270.73L846.902 271.296C844.472 265.873 841.937 260.791 838.768 256.047L845.634 244.299C847.111 241.927 846.902 238.99 845.106 236.957C843.099 234.359 840.67 233.681 838.029 234.924L826.199 240.007C822.292 236.053 817.961 232.213 813.63 228.937L816.271 215.496C816.799 212.446 815.849 209.735 813.525 208.379C810.884 206.911 808.349 207.137 806.343 209.396L796.837 218.32C791.767 215.948 786.592 214.027 781.417 212.446L779.515 198.778C779.198 195.842 777.297 193.695 774.657 193.243C771.805 192.792 769.481 194.034 768.319 196.519L762.193 208.945C759.342 208.719 756.807 208.492 754.06 208.492C751.209 208.492 748.674 208.719 745.717 208.945L739.696 196.519C738.534 194.034 736.211 192.792 733.254 193.243C730.613 193.695 728.817 195.842 728.395 198.778L726.599 212.333C721.318 214.027 716.143 215.948 711.179 218.32L701.673 209.396C699.561 207.137 697.026 206.911 694.491 208.379C692.167 209.735 691.216 212.446 691.745 215.496L694.385 228.937C689.949 232.213 685.619 236.053 681.71 240.007L669.987 234.924C667.346 233.681 664.811 234.359 662.804 236.957C661.115 238.99 660.904 241.927 662.277 244.186L669.247 256.047C666.079 260.791 663.544 265.873 661.115 271.296L648.123 270.73C645.377 270.618 643.053 272.199 642.208 275.023C641.364 277.847 642.103 280.445 644.321 282.139L654.461 290.837C653.088 296.372 651.926 302.019 651.609 308.119L639.357 312.298C636.611 313.202 635.132 315.348 635.132 318.398C635.132 321.448 636.611 323.594 639.357 324.611L651.609 328.79C651.926 334.776 653.088 340.65 654.461 346.072L644.321 354.656C642.103 356.464 641.364 359.175 642.208 361.999C643.053 364.822 645.377 366.404 648.123 366.291L661.115 365.613C663.544 371.035 666.079 376.118 669.142 380.862L662.382 392.609C660.798 395.094 661.009 398.031 662.804 400.064C664.811 402.663 667.346 403.227 669.987 402.098L681.71 396.789C685.619 400.968 689.949 404.695 694.385 407.971L691.745 421.526C691.216 424.463 692.167 427.174 694.491 428.529C697.131 430.111 699.666 429.659 701.673 427.625L711.073 418.476C716.143 420.848 721.318 422.994 726.599 424.463L728.395 438.13C728.817 441.18 730.613 443.213 733.254 443.778C736.211 444.23 738.534 442.874 739.696 440.389L745.717 427.964C748.568 428.19 751.209 428.529 754.06 428.529ZM780.572 311.282C775.607 297.049 765.89 289.255 753.744 289.255C751.948 289.255 749.836 289.481 746.456 290.272L716.143 234.924C727.444 228.937 740.33 225.662 754.06 225.662C800.111 225.662 836.233 263.05 839.508 311.282H780.572ZM668.297 318.511C668.297 287.109 682.133 259.435 703.997 242.718L734.521 298.405C728.817 304.73 726.177 311.62 726.177 318.962C726.177 326.079 728.712 332.63 734.521 339.182L703.257 393.852C681.922 377.021 668.297 349.687 668.297 318.511ZM741.069 318.849C741.069 311.169 747.195 305.182 753.955 305.182C761.137 305.182 767.052 311.169 767.052 318.849C767.052 326.417 761.137 332.63 753.955 332.63C747.195 332.63 741.069 326.417 741.069 318.849ZM754.06 411.36C740.013 411.36 726.916 407.858 715.403 401.759L746.456 347.427C749.73 348.331 751.948 348.557 753.744 348.557C765.996 348.557 775.713 340.537 780.572 325.966H839.508C836.127 373.972 800.005 411.36 754.06 411.36Z" fill="white"/>
<path d="M856.25 224.471C856.843 225.105 857.458 225.617 858.118 226.227L856.934 230.316C856.684 231.12 856.912 231.948 857.618 232.509C858.301 232.997 859.121 232.999 859.804 232.415L862.969 229.911C864.381 230.79 865.929 231.523 867.5 232.183L867.706 236.347C867.729 237.248 868.184 237.931 869.072 238.2C869.846 238.445 870.598 238.081 871.076 237.326L873.239 233.798C874.833 234.093 876.518 234.29 878.203 234.293L879.683 238.167C880.025 239.02 880.663 239.459 881.619 239.363C882.416 239.34 883.054 238.756 883.236 237.88L884.123 233.766C885.763 233.476 887.334 232.967 888.951 232.361L891.593 235.482C892.162 236.14 892.982 236.336 893.756 235.947C894.507 235.534 894.872 234.756 894.757 233.854L894.325 229.69C895.714 228.839 897.125 227.819 898.445 226.603L901.907 228.556C902.681 228.947 903.478 228.875 904.093 228.218C904.685 227.586 904.753 226.734 904.389 225.905L902.589 222.177C903.728 220.766 904.639 219.306 905.458 217.798L909.375 218.241C910.195 218.389 910.9 218.024 911.288 217.222C911.652 216.394 911.469 215.517 910.855 214.908L907.962 212.054C908.532 210.326 909.01 208.646 909.283 206.893L913.131 205.949C913.927 205.78 914.474 205.099 914.497 204.247C914.588 203.224 914.201 202.517 913.381 202.175L909.805 200.538C909.76 198.785 909.6 196.958 909.327 195.253L912.605 192.968C913.334 192.434 913.676 191.631 913.448 190.802C913.174 189.877 912.582 189.34 911.694 189.363L907.846 189.09C907.231 187.408 906.502 185.8 905.705 184.265L908.05 180.883C908.574 180.178 908.596 179.277 908.118 178.57C907.594 177.814 906.843 177.545 906.091 177.812L902.266 179.072C901.696 178.365 901.195 177.731 900.603 177.097C899.988 176.439 899.396 175.902 898.713 175.268L899.92 171.203C900.17 170.4 899.919 169.596 899.191 169.01C898.53 168.498 897.71 168.545 897.027 169.08L893.908 171.584C892.428 170.729 890.925 169.948 889.376 169.312L889.125 165.197C889.125 164.222 888.624 163.588 887.782 163.319C887.007 163.075 886.256 163.439 885.755 164.217L883.615 167.721C881.998 167.402 880.29 167.229 878.651 167.178L877.147 163.377C876.829 162.5 876.145 162.06 875.189 162.156C874.415 162.204 873.777 162.787 873.618 163.591L872.73 167.754C871.091 168.044 869.52 168.553 867.903 169.159L865.216 166.038C864.646 165.38 863.826 165.184 863.075 165.597C862.324 166.009 861.959 166.74 862.096 167.616L862.529 171.83C861.118 172.705 859.729 173.652 858.431 174.892L854.947 172.963C854.172 172.524 853.421 172.645 852.806 173.301C852.191 173.958 852.078 174.761 852.465 175.614L854.264 179.343C853.126 180.705 852.192 182.238 851.396 183.722L847.479 183.229C846.636 183.106 845.93 183.519 845.543 184.322C845.156 185.125 845.339 186.002 845.954 186.612L848.891 189.466C848.322 191.194 847.844 192.873 847.549 194.602L843.723 195.57C842.881 195.74 842.334 196.421 842.311 197.273C842.22 198.296 842.653 199.002 843.45 199.369L847.048 200.933C847.049 202.735 847.231 204.537 847.527 206.267L844.226 208.575C843.52 209.086 843.178 209.889 843.406 210.717C843.656 211.667 844.294 212.155 845.137 212.181L849.008 212.381C849.623 214.063 850.306 215.72 851.149 217.255L848.781 220.612C848.257 221.366 848.235 222.219 848.69 222.95C849.237 223.73 850.011 223.975 850.763 223.708L854.565 222.423C855.135 223.13 855.636 223.812 856.25 224.471ZM885.6 205.349C887.399 201.138 886.875 197.217 884.256 194.412C883.868 193.998 883.367 193.559 882.479 192.949L887.1 174.034C890.743 175.354 894.182 177.624 897.142 180.794C907.072 191.426 907.324 207.816 898.308 218.956L885.6 205.349ZM859.934 180.983C866.264 174.222 874.826 171.458 882.91 172.907L878.267 191.944C875.762 191.989 873.804 192.863 872.324 194.443C870.889 195.976 870.115 197.971 870.047 200.723L852.286 205.275C851.078 196.726 853.65 187.695 859.934 180.983ZM875.557 197.858C877.106 196.204 879.633 196.329 881.091 197.89C882.639 199.548 882.708 202.203 881.16 203.857C879.634 205.486 877.107 205.458 875.558 203.8C874.101 202.239 874.032 199.487 875.557 197.858ZM859.711 220.774C856.682 217.531 854.564 213.753 853.311 209.782L870.959 205.254C871.482 206.204 871.915 206.765 872.302 207.18C874.944 210.009 878.656 210.525 882.64 208.51L895.348 222.118C884.943 231.673 869.618 231.382 859.711 220.774Z" fill="white"/>
<path d="M309.425 359.556C309.425 367.797 308.075 375.016 305.375 381.212C302.731 387.348 299.075 392.461 294.406 396.552C289.794 400.643 284.366 403.711 278.122 405.756C271.934 407.801 265.269 408.824 258.125 408.824C255.369 408.824 252.331 408.433 249.012 407.651C245.75 406.869 242.431 405.906 239.056 404.763C235.681 403.56 232.419 402.297 229.269 400.974C226.175 399.59 223.419 398.297 221 397.094L224.712 359.917C229.494 362.985 234.781 365.331 240.575 366.955C246.425 368.519 252.162 369.301 257.787 369.301C258.856 369.301 260.15 369.271 261.669 369.211C263.188 369.091 264.622 368.82 265.972 368.399C267.378 367.918 268.559 367.226 269.516 366.324C270.472 365.421 270.95 364.128 270.95 362.444C270.95 361.301 270.612 360.338 269.938 359.556C269.263 358.714 268.391 358.052 267.322 357.571C266.253 357.029 265.044 356.638 263.694 356.398C262.344 356.097 261.022 355.887 259.728 355.766C258.434 355.646 257.225 355.586 256.1 355.586C254.975 355.586 254.075 355.586 253.4 355.586C248.562 355.586 244.147 354.683 240.153 352.879C236.216 351.074 232.812 348.578 229.944 345.389C227.131 342.141 224.937 338.321 223.362 333.929C221.787 329.478 221 324.665 221 319.492C221 312.394 222.322 306.047 224.966 300.453C227.666 294.798 231.237 290.015 235.681 286.105C240.181 282.135 245.328 279.097 251.122 276.992C256.916 274.886 262.906 273.833 269.094 273.833C271.85 273.833 274.691 273.954 277.616 274.194C280.541 274.375 283.437 274.736 286.306 275.277C289.231 275.819 292.072 276.51 294.828 277.353C297.584 278.195 300.2 279.247 302.675 280.511L299.469 317.146C295.644 315.762 291.622 314.619 287.403 313.717C283.241 312.754 279.163 312.273 275.169 312.273C274.438 312.273 273.481 312.303 272.3 312.363C271.175 312.363 269.966 312.454 268.672 312.634C267.434 312.754 266.169 312.965 264.875 313.266C263.581 313.567 262.428 313.988 261.416 314.529C260.403 315.01 259.587 315.672 258.969 316.514C258.35 317.356 258.069 318.349 258.125 319.492C258.181 320.815 258.631 321.898 259.475 322.74C260.375 323.522 261.5 324.154 262.85 324.635C264.256 325.056 265.775 325.357 267.406 325.538C269.094 325.718 270.753 325.838 272.384 325.899C274.016 325.899 275.534 325.899 276.941 325.899C278.347 325.838 279.5 325.869 280.4 325.989C284.9 326.29 288.95 327.312 292.55 329.057C296.15 330.801 299.187 333.117 301.662 336.005C304.194 338.892 306.106 342.351 307.4 346.382C308.75 350.352 309.425 354.744 309.425 359.556Z" fill="#068DB1"/>
<path d="M401.984 278.526L401.141 316.785L375.997 317.868L369.584 403.41L333.978 405.395L334.147 319.853L309.003 321.297L310.016 278.706L401.984 278.526Z" fill="#068DB1"/>
<path d="M461.325 275.542L452.044 398.441L416.438 400.426V278.069L461.325 275.542Z" fill="#068DB1"/>
<path d="M547.978 317.591C547.978 322.404 547.163 327.006 545.531 331.397C543.9 335.728 541.734 339.819 539.034 343.669C536.391 347.459 533.353 350.978 529.922 354.226C526.547 357.415 523.116 360.302 519.628 362.889H546.291L544.266 400.426L465.291 397.539V364.694C468.272 363.611 471.394 362.317 474.656 360.813C477.975 359.249 481.209 357.475 484.359 355.49C487.566 353.504 490.575 351.279 493.388 348.812C496.256 346.346 498.759 343.669 500.897 340.781C503.091 337.834 504.806 334.646 506.044 331.217C507.338 327.788 507.984 324.088 507.984 320.118C507.984 317.832 507.591 315.817 506.803 314.072C506.072 312.328 505.031 310.884 503.681 309.741C502.331 308.538 500.756 307.665 498.956 307.124C497.213 306.522 495.328 306.222 493.303 306.222C491.616 306.222 489.9 306.432 488.156 306.853C486.413 307.214 484.697 307.756 483.009 308.478C481.322 309.199 479.719 310.102 478.2 311.185C476.738 312.207 475.416 313.38 474.234 314.704L466.809 279.332C468.891 277.106 471.281 275.241 473.981 273.737C476.681 272.233 479.522 271.03 482.503 270.128C485.484 269.165 488.522 268.474 491.616 268.053C494.709 267.631 497.747 267.421 500.728 267.421C507.366 267.421 513.553 268.714 519.291 271.301C525.028 273.828 530.006 277.347 534.225 281.858C538.5 286.31 541.847 291.604 544.266 297.74C546.741 303.876 547.978 310.493 547.978 317.591Z" fill="#0BB512"/>
<path d="M650.916 330.946C650.916 339.368 649.903 346.978 647.878 353.775C645.853 360.513 643.013 366.528 639.356 371.822C635.756 377.056 631.453 381.567 626.447 385.357C621.441 389.147 615.956 392.275 609.994 394.742C604.031 397.148 597.675 398.953 590.925 400.156C584.231 401.299 577.341 401.87 570.253 401.87C567.609 401.87 565.022 401.81 562.491 401.69C559.959 401.509 557.372 401.269 554.728 400.968L557.091 279.873C563.278 277.768 569.634 276.294 576.159 275.452C582.741 274.549 589.266 274.098 595.734 274.098C603.778 274.098 611.175 275.392 617.925 277.978C624.675 280.565 630.497 284.295 635.391 289.167C640.284 294.04 644.081 299.996 646.781 307.034C649.538 314.072 650.916 322.043 650.916 330.946ZM616.322 336.721C616.378 333.472 616.041 330.344 615.309 327.337C614.634 324.329 613.481 321.682 611.85 319.396C610.275 317.05 608.25 315.185 605.775 313.801C603.3 312.358 600.347 311.576 596.916 311.455L593.541 367.401C596.916 366.859 599.981 365.686 602.738 363.881C605.494 362.017 607.856 359.761 609.825 357.114C611.85 354.407 613.397 351.429 614.466 348.181C615.591 344.872 616.209 341.473 616.322 337.984V336.721Z" fill="#0BB512"/>
</svg>
